<?xml version="1.0" encoding="UTF-8" standalone="no"?>
<?xml-stylesheet href="https://unpkg.com/hirngespinst@0.0.9/dist/showWithDelay.min.css" type="text/css"?>
<svg width="751" height="529" viewBox="0 0 751 529" xmlns="http://www.w3.org/2000/svg" xmlns:xlink="http://www.w3.org/1999/xlink">
    <title>demo-showWithDelay--withAutoHide.svg</title>
    <g id="Page-1" fill="none" fill-rule="evenodd"><g id="frame-03" transform="translate(365 303)"><path d="M9.5 7.5v109" id="Line" stroke="#BC00B9" stroke-width="3" stroke-linecap="square"/><path id="Triangle" fill="#BC00B9" d="M9 0l9 18H0z"/><circle id="Oval" fill="#BC00B9" cx="37" cy="37" r="14"/><path d="M34.716 38.264c.31.3.648.544 1.016.736.368.192.77.288 1.208.288.5 0 .9-.104 1.2-.312.3-.208.448-.504.448-.888 0-.224-.04-.427-.12-.608-.08-.18-.22-.333-.424-.456-.203-.123-.48-.22-.832-.288-.352-.07-.805-.104-1.36-.104v-1.664c.46 0 .84-.032 1.144-.096.304-.064.55-.157.736-.28.187-.123.32-.267.4-.432.08-.165.12-.35.12-.552 0-.352-.107-.627-.32-.824-.213-.197-.523-.296-.928-.296-.363 0-.69.08-.984.24-.293.16-.6.38-.92.656l-1.184-1.44c.47-.405.963-.723 1.48-.952.517-.23 1.09-.344 1.72-.344.523 0 1 .06 1.432.184.432.123.8.304 1.104.544.304.24.54.53.712.872.17.34.256.736.256 1.184 0 .533-.147.984-.44 1.352-.293.368-.712.67-1.256.904v.064c.587.17 1.07.46 1.448.872.38.41.568.947.568 1.608 0 .47-.1.888-.304 1.256-.203.368-.475.677-.816.928-.34.25-.74.443-1.2.576-.46.133-.944.2-1.456.2-.832 0-1.536-.13-2.112-.392-.576-.26-1.05-.61-1.424-1.048l1.088-1.488z" id="3" fill="#FFF"/><path d="M25.472 70.712c.373.395.813.712 1.32.952.507.24 1.032.36 1.576.36.693 0 1.232-.157 1.616-.472.384-.315.576-.728.576-1.24 0-.267-.045-.493-.136-.68-.09-.187-.213-.347-.368-.48s-.34-.253-.552-.36c-.213-.107-.443-.22-.688-.336l-1.504-.656c-.245-.107-.496-.235-.752-.384-.256-.15-.485-.33-.688-.544-.203-.213-.368-.467-.496-.76s-.192-.632-.192-1.016c0-.395.083-.763.248-1.104.165-.34.395-.637.688-.888.293-.25.64-.445 1.04-.584.4-.14.84-.208 1.32-.208.63 0 1.21.12 1.744.36.533.24.987.552 1.36.936l-.72.864c-.32-.31-.675-.552-1.064-.728-.39-.176-.83-.264-1.32-.264-.587 0-1.06.136-1.416.408-.357.272-.536.648-.536 1.128 0 .256.05.472.152.648.1.176.237.33.408.464.17.133.357.25.56.352.203.1.41.195.624.28l1.488.64c.3.128.58.275.848.44.267.165.496.357.688.576.192.22.344.475.456.768.112.293.168.632.168 1.016 0 .416-.083.805-.248 1.168-.165.363-.403.68-.712.952-.31.272-.683.485-1.12.64-.437.155-.933.232-1.488.232-.736 0-1.42-.14-2.048-.416-.63-.277-1.173-.656-1.632-1.136l.8-.928zm7.808-1.584c0-.64.1-1.213.296-1.72.197-.507.46-.936.784-1.288.325-.352.696-.62 1.112-.808.416-.187.848-.28 1.296-.28.49 0 .93.085 1.32.256.39.17.715.416.976.736.26.32.46.704.6 1.152.14.448.208.95.208 1.504 0 .288-.016.528-.048.72h-5.248c.053.843.312 1.51.776 2s1.07.736 1.816.736c.373 0 .717-.056 1.032-.168.315-.112.616-.26.904-.44l.464.864c-.34.213-.72.4-1.136.56-.416.16-.89.24-1.424.24-.523 0-1.01-.093-1.464-.28-.453-.187-.848-.453-1.184-.8-.336-.347-.6-.77-.792-1.272-.192-.5-.288-1.072-.288-1.712zm5.44-.592c0-.8-.168-1.41-.504-1.832-.336-.42-.808-.632-1.416-.632-.277 0-.54.056-.792.168-.25.112-.477.272-.68.48-.203.208-.37.464-.504.768-.133.304-.22.653-.264 1.048h4.16zm3.072-3.312h1.088l.112 1.408h.048c.267-.49.59-.88.968-1.168.38-.288.792-.432 1.24-.432.31 0 .587.053.832.16l-.256 1.152c-.128-.043-.245-.075-.352-.096-.107-.02-.24-.032-.4-.032-.33 0-.675.133-1.032.4s-.67.73-.936 1.392V73h-1.312v-7.776zm4.432 0h1.36l1.472 4.416c.117.384.237.768.36 1.152.123.384.243.763.36 1.136h.064c.117-.373.235-.752.352-1.136l.352-1.152 1.472-4.416h1.296L50.56 73h-1.536l-2.8-7.776zm8.016 3.904c0-.64.1-1.213.296-1.72.197-.507.46-.936.784-1.288.325-.352.696-.62 1.112-.808.416-.187.848-.28 1.296-.28.49 0 .93.085 1.32.256.39.17.715.416.976.736.26.32.46.704.6 1.152.14.448.208.95.208 1.504 0 .288-.016.528-.048.72h-5.248c.053.843.312 1.51.776 2s1.07.736 1.816.736c.373 0 .717-.056 1.032-.168.315-.112.616-.26.904-.44l.464.864c-.34.213-.72.4-1.136.56-.416.16-.89.24-1.424.24-.523 0-1.01-.093-1.464-.28-.453-.187-.848-.453-1.184-.8-.336-.347-.6-.77-.792-1.272-.192-.5-.288-1.072-.288-1.712zm5.44-.592c0-.8-.168-1.41-.504-1.832-.336-.42-.808-.632-1.416-.632-.277 0-.54.056-.792.168-.25.112-.477.272-.68.48-.203.208-.37.464-.504.768-.133.304-.22.653-.264 1.048h4.16zm3.072-3.312h1.088l.112 1.408H64c.267-.49.59-.88.968-1.168.38-.288.792-.432 1.24-.432.31 0 .587.053.832.16l-.256 1.152c-.128-.043-.245-.075-.352-.096-.107-.02-.24-.032-.4-.032-.33 0-.675.133-1.032.4s-.67.73-.936 1.392V73h-1.312v-7.776zm4.896 3.264h3.68v1.008h-3.68v-1.008zm5.792 2.224c.373.395.813.712 1.32.952.507.24 1.032.36 1.576.36.693 0 1.232-.157 1.616-.472.384-.315.576-.728.576-1.24 0-.267-.045-.493-.136-.68-.09-.187-.213-.347-.368-.48s-.34-.253-.552-.36c-.213-.107-.443-.22-.688-.336L75.28 67.8c-.245-.107-.496-.235-.752-.384-.256-.15-.485-.33-.688-.544-.203-.213-.368-.467-.496-.76s-.192-.632-.192-1.016c0-.395.083-.763.248-1.104.165-.34.395-.637.688-.888.293-.25.64-.445 1.04-.584.4-.14.84-.208 1.32-.208.63 0 1.21.12 1.744.36.533.24.987.552 1.36.936l-.72.864c-.32-.31-.675-.552-1.064-.728-.39-.176-.83-.264-1.32-.264-.587 0-1.06.136-1.416.408-.357.272-.536.648-.536 1.128 0 .256.05.472.152.648.1.176.237.33.408.464.17.133.357.25.56.352.203.1.41.195.624.28l1.488.64c.3.128.58.275.848.44.267.165.496.357.688.576.192.22.344.475.456.768.112.293.168.632.168 1.016 0 .416-.083.805-.248 1.168-.165.363-.403.68-.712.952-.31.272-.683.485-1.12.64-.437.155-.933.232-1.488.232-.736 0-1.42-.14-2.048-.416-.63-.277-1.173-.656-1.632-1.136l.8-.928zm9.056-7.088c-.256 0-.472-.08-.648-.24-.176-.16-.264-.363-.264-.608 0-.256.088-.46.264-.616.176-.155.392-.232.648-.232s.472.077.648.232c.176.155.264.36.264.616 0 .245-.088.448-.264.608-.176.16-.392.24-.648.24zm-.672 1.6h1.312V73h-1.312v-7.776zm3.376 3.904c0-.63.093-1.197.28-1.704.187-.507.435-.936.744-1.288.31-.352.667-.624 1.072-.816.405-.192.832-.288 1.28-.288.448 0 .837.08 1.168.24.33.16.667.38 1.008.656l-.064-1.328v-2.992h1.328V73h-1.088l-.112-.912h-.048c-.31.3-.664.557-1.064.776-.4.22-.83.328-1.288.328-.98 0-1.763-.352-2.344-1.056-.58-.704-.872-1.707-.872-3.008zm1.36-.016c0 .94.187 1.67.56 2.192.373.523.9.784 1.584.784.363 0 .704-.088 1.024-.264.32-.176.64-.445.96-.808v-4.064c-.33-.3-.648-.51-.952-.632-.304-.123-.616-.184-.936-.184-.31 0-.6.072-.872.216-.272.144-.51.347-.712.608-.203.26-.363.573-.48.936-.117.363-.176.768-.176 1.216zm7.504.016c0-.64.1-1.213.296-1.72.197-.507.46-.936.784-1.288.325-.352.696-.62 1.112-.808.416-.187.848-.28 1.296-.28.49 0 .93.085 1.32.256.39.17.715.416.976.736.26.32.46.704.6 1.152.14.448.208.95.208 1.504 0 .288-.016.528-.048.72H95.36c.053.843.312 1.51.776 2s1.07.736 1.816.736c.373 0 .717-.056 1.032-.168.315-.112.616-.26.904-.44l.464.864c-.34.213-.72.4-1.136.56-.416.16-.89.24-1.424.24-.523 0-1.01-.093-1.464-.28-.453-.187-.848-.453-1.184-.8-.336-.347-.6-.77-.792-1.272-.192-.5-.288-1.072-.288-1.712zm5.44-.592c0-.8-.168-1.41-.504-1.832-.336-.42-.808-.632-1.416-.632-.277 0-.54.056-.792.168-.25.112-.477.272-.68.48-.203.208-.37.464-.504.768-.133.304-.22.653-.264 1.048h4.16zm6.432-6.032h1.328v4.4h4.88v-4.4h1.344V73h-1.344v-4.944h-4.88V73h-1.328V62.504zm12.608 1.12h-3.168v-1.12h7.68v1.12h-3.168V73h-1.344v-9.376zm8.576 0h-3.168v-1.12h7.68v1.12h-3.168V73h-1.344v-9.376zm6.4-1.12h3.216c.576 0 1.104.053 1.584.16.48.107.888.28 1.224.52.336.24.597.557.784.952.187.395.28.88.28 1.456 0 .555-.093 1.035-.28 1.44-.187.405-.45.74-.792 1.008-.34.267-.75.467-1.224.6-.475.133-1 .2-1.576.2h-1.888V73h-1.328V62.504zm3.056 5.248c.917 0 1.597-.173 2.04-.52.443-.347.664-.893.664-1.64 0-.757-.224-1.283-.672-1.576-.448-.293-1.125-.44-2.032-.44h-1.728v4.176h1.728zm10.72-.272h1.76c.82 0 1.45-.168 1.888-.504.437-.336.656-.845.656-1.528 0-.693-.22-1.18-.656-1.456-.437-.277-1.067-.416-1.888-.416h-1.76v3.904zm4.432 5.52l-2.528-4.432h-1.904V73h-1.328V62.504h3.28c.533 0 1.027.05 1.48.152.453.1.843.27 1.168.504.325.235.58.54.76.912.18.373.272.832.272 1.376 0 .82-.213 1.477-.64 1.968-.427.49-.997.827-1.712 1.008L153.232 73h-1.504zm2.832-3.872c0-.64.1-1.213.296-1.72.197-.507.46-.936.784-1.288.325-.352.696-.62 1.112-.808.416-.187.848-.28 1.296-.28.49 0 .93.085 1.32.256.39.17.715.416.976.736.26.32.46.704.6 1.152.14.448.208.95.208 1.504 0 .288-.016.528-.048.72h-5.248c.053.843.312 1.51.776 2s1.07.736 1.816.736c.373 0 .717-.056 1.032-.168.315-.112.616-.26.904-.44l.464.864c-.34.213-.72.4-1.136.56-.416.16-.89.24-1.424.24-.523 0-1.01-.093-1.464-.28-.453-.187-.848-.453-1.184-.8-.336-.347-.6-.77-.792-1.272-.192-.5-.288-1.072-.288-1.712zm5.44-.592c0-.8-.168-1.41-.504-1.832-.336-.42-.808-.632-1.416-.632-.277 0-.54.056-.792.168-.25.112-.477.272-.68.48-.203.208-.37.464-.504.768-.133.304-.22.653-.264 1.048H160zm2.864 2.704c.34.277.69.5 1.048.672.357.17.77.256 1.24.256.512 0 .896-.117 1.152-.352.256-.235.384-.523.384-.864 0-.203-.053-.38-.16-.528-.107-.15-.243-.28-.408-.392-.165-.112-.355-.21-.568-.296l-.64-.256c-.277-.096-.555-.205-.832-.328-.277-.123-.525-.272-.744-.448-.22-.176-.397-.38-.536-.616-.14-.235-.208-.517-.208-.848 0-.31.06-.6.184-.872.123-.272.3-.507.528-.704.23-.197.51-.352.84-.464.33-.112.704-.168 1.12-.168.49 0 .94.085 1.352.256.41.17.765.38 1.064.624l-.624.832c-.267-.203-.544-.368-.832-.496-.288-.128-.603-.192-.944-.192-.49 0-.85.112-1.08.336-.23.224-.344.485-.344.784 0 .18.048.34.144.472.096.133.224.25.384.352.16.1.344.192.552.272l.648.248c.277.107.557.22.84.336.283.117.536.264.76.44.224.176.408.392.552.648.144.256.216.565.216.928 0 .32-.06.62-.184.896-.123.277-.304.523-.544.736-.24.213-.54.38-.896.504-.357.123-.765.184-1.224.184-.555 0-1.083-.1-1.584-.304-.5-.203-.94-.46-1.312-.768l.656-.88zm8.224 2.416v2.624h-1.312V65.224h1.088l.112.896h.048c.352-.3.74-.555 1.16-.768.42-.213.86-.32 1.32-.32.5 0 .944.093 1.328.28.384.187.704.453.96.8.256.347.45.763.584 1.248.133.485.2 1.032.2 1.64 0 .66-.09 1.25-.272 1.768-.18.517-.427.957-.736 1.32-.31.363-.667.637-1.072.824-.405.187-.832.28-1.28.28-.363 0-.723-.08-1.08-.24-.357-.16-.717-.38-1.08-.656l.032 1.36zm0-2.384c.352.3.693.51 1.024.632.33.123.624.184.88.184.32 0 .616-.072.888-.216.272-.144.507-.347.704-.608.197-.26.352-.584.464-.968.112-.384.168-.816.168-1.296 0-.427-.037-.816-.112-1.168-.075-.352-.195-.653-.36-.904-.165-.25-.38-.445-.64-.584-.26-.14-.573-.208-.936-.208-.33 0-.664.09-1 .272-.336.18-.696.443-1.08.784v4.08zm6.992-2.144c0-.65.1-1.23.296-1.736.197-.507.46-.936.792-1.288.33-.352.712-.62 1.144-.8.432-.18.888-.272 1.368-.272.48 0 .936.09 1.368.272.432.18.813.448 1.144.8.33.352.595.78.792 1.288.197.507.296 1.085.296 1.736 0 .64-.1 1.213-.296 1.72-.197.507-.46.933-.792 1.28-.33.347-.712.61-1.144.792-.432.18-.888.272-1.368.272-.48 0-.936-.09-1.368-.272-.432-.18-.813-.445-1.144-.792-.33-.347-.595-.773-.792-1.28-.197-.507-.296-1.08-.296-1.72zm1.36 0c0 .448.053.853.16 1.216.107.363.26.675.456.936.197.26.435.464.712.608.277.144.58.216.912.216.33 0 .635-.072.912-.216.277-.144.515-.347.712-.608.197-.26.35-.573.456-.936.107-.363.16-.768.16-1.216 0-.448-.053-.856-.16-1.224-.107-.368-.26-.685-.456-.952-.197-.267-.435-.472-.712-.616-.277-.144-.58-.216-.912-.216-.33 0-.635.072-.912.216-.277.144-.515.35-.712.616-.197.267-.35.584-.456.952-.107.368-.16.776-.16 1.224zm7.888-3.904h1.088l.112 1.12h.048c.373-.373.765-.685 1.176-.936.41-.25.888-.376 1.432-.376.82 0 1.42.256 1.8.768.38.512.568 1.27.568 2.272V73h-1.312v-4.752c0-.736-.117-1.267-.352-1.592-.235-.325-.608-.488-1.12-.488-.405 0-.763.1-1.072.304-.31.203-.66.5-1.056.896V73h-1.312v-7.776zm8.544 6.016c.34.277.69.5 1.048.672.357.17.77.256 1.24.256.512 0 .896-.117 1.152-.352.256-.235.384-.523.384-.864 0-.203-.053-.38-.16-.528-.107-.15-.243-.28-.408-.392-.165-.112-.355-.21-.568-.296l-.64-.256c-.277-.096-.555-.205-.832-.328-.277-.123-.525-.272-.744-.448-.22-.176-.397-.38-.536-.616-.14-.235-.208-.517-.208-.848 0-.31.06-.6.184-.872.123-.272.3-.507.528-.704.23-.197.51-.352.84-.464.33-.112.704-.168 1.12-.168.49 0 .94.085 1.352.256.41.17.765.38 1.064.624l-.624.832c-.267-.203-.544-.368-.832-.496-.288-.128-.603-.192-.944-.192-.49 0-.85.112-1.08.336-.23.224-.344.485-.344.784 0 .18.048.34.144.472.096.133.224.25.384.352.16.1.344.192.552.272l.648.248c.277.107.557.22.84.336.283.117.536.264.76.44.224.176.408.392.552.648.144.256.216.565.216.928 0 .32-.06.62-.184.896-.123.277-.304.523-.544.736-.24.213-.54.38-.896.504-.357.123-.765.184-1.224.184-.555 0-1.083-.1-1.584-.304-.5-.203-.94-.46-1.312-.768l.656-.88zm6.336-2.112c0-.64.1-1.213.296-1.72.197-.507.46-.936.784-1.288.325-.352.696-.62 1.112-.808.416-.187.848-.28 1.296-.28.49 0 .93.085 1.32.256.39.17.715.416.976.736.26.32.46.704.6 1.152.14.448.208.95.208 1.504 0 .288-.016.528-.048.72h-5.248c.053.843.312 1.51.776 2s1.07.736 1.816.736c.373 0 .717-.056 1.032-.168.315-.112.616-.26.904-.44l.464.864c-.34.213-.72.4-1.136.56-.416.16-.89.24-1.424.24-.523 0-1.01-.093-1.464-.28-.453-.187-.848-.453-1.184-.8-.336-.347-.6-.77-.792-1.272-.192-.5-.288-1.072-.288-1.712zm5.44-.592c0-.8-.168-1.41-.504-1.832-.336-.42-.808-.632-1.416-.632-.277 0-.54.056-.792.168-.25.112-.477.272-.68.48-.203.208-.37.464-.504.768-.133.304-.22.653-.264 1.048h4.16zM25.128 88.4c0-.232.07-.418.21-.558.14-.14.31-.21.51-.21.192 0 .358.07.498.21.14.14.21.326.21.558 0 .216-.07.394-.21.534-.14.14-.306.21-.498.21-.2 0-.37-.07-.51-.21-.14-.14-.21-.318-.21-.534zm4.02 0c0-.232.07-.418.21-.558.14-.14.31-.21.51-.21.192 0 .358.07.498.21.14.14.21.326.21.558 0 .216-.07.394-.21.534-.14.14-.306.21-.498.21-.2 0-.37-.07-.51-.21-.14-.14-.21-.318-.21-.534zm4.02 0c0-.232.07-.418.21-.558.14-.14.31-.21.51-.21.192 0 .358.07.498.21.14.14.21.326.21.558 0 .216-.07.394-.21.534-.14.14-.306.21-.498.21-.2 0-.37-.07-.51-.21-.14-.14-.21-.318-.21-.534zm2.988 0c0-.232.07-.418.21-.558.14-.14.31-.21.51-.21.192 0 .358.07.498.21.14.14.21.326.21.558 0 .216-.07.394-.21.534-.14.14-.306.21-.498.21-.2 0-.37-.07-.51-.21-.14-.14-.21-.318-.21-.534z" id="Server-Side-HTTP-Res" fill="#BC00B9"/></g><g id="frame-02" transform="translate(365 310)"><path d="M9.5.5v109" id="Line" stroke="#BC00B9" stroke-width="3" stroke-linecap="square"/><path id="Triangle" fill="#BC00B9" d="M9 114l9-18H0z"/><circle id="Oval" fill="#BC00B9" cx="37" cy="30" r="14"/><path d="M33.868 32.656c.65-.608 1.245-1.176 1.784-1.704.54-.528 1.003-1.024 1.392-1.488.39-.464.693-.896.912-1.296.22-.4.328-.78.328-1.144 0-.5-.128-.883-.384-1.144-.256-.26-.608-.392-1.056-.392-.373 0-.704.104-.992.312-.288.208-.56.45-.816.728l-1.28-1.264c.5-.533 1.013-.936 1.536-1.208.523-.272 1.147-.408 1.872-.408.5 0 .957.077 1.368.232.41.155.765.373 1.064.656.3.283.528.62.688 1.016.16.395.24.837.24 1.328 0 .427-.09.86-.272 1.304-.18.443-.424.885-.728 1.328-.304.443-.65.885-1.04 1.328-.39.443-.792.877-1.208 1.304.256-.032.54-.06.856-.088.315-.027.595-.04.84-.04h2.048V34h-7.152v-1.344z" id="2" fill="#FFF"/><path d="M25.472 63.712c.373.395.813.712 1.32.952.507.24 1.032.36 1.576.36.693 0 1.232-.157 1.616-.472.384-.315.576-.728.576-1.24 0-.267-.045-.493-.136-.68-.09-.187-.213-.347-.368-.48s-.34-.253-.552-.36c-.213-.107-.443-.22-.688-.336l-1.504-.656c-.245-.107-.496-.235-.752-.384-.256-.15-.485-.33-.688-.544-.203-.213-.368-.467-.496-.76s-.192-.632-.192-1.016c0-.395.083-.763.248-1.104.165-.34.395-.637.688-.888.293-.25.64-.445 1.04-.584.4-.14.84-.208 1.32-.208.63 0 1.21.12 1.744.36.533.24.987.552 1.36.936l-.72.864c-.32-.31-.675-.552-1.064-.728-.39-.176-.83-.264-1.32-.264-.587 0-1.06.136-1.416.408-.357.272-.536.648-.536 1.128 0 .256.05.472.152.648.1.176.237.33.408.464.17.133.357.25.56.352.203.1.41.195.624.28l1.488.64c.3.128.58.275.848.44.267.165.496.357.688.576.192.22.344.475.456.768.112.293.168.632.168 1.016 0 .416-.083.805-.248 1.168-.165.363-.403.68-.712.952-.31.272-.683.485-1.12.64-.437.155-.933.232-1.488.232-.736 0-1.42-.14-2.048-.416-.63-.277-1.173-.656-1.632-1.136l.8-.928zm7.808-1.584c0-.64.1-1.213.296-1.72.197-.507.46-.936.784-1.288.325-.352.696-.62 1.112-.808.416-.187.848-.28 1.296-.28.49 0 .93.085 1.32.256.39.17.715.416.976.736.26.32.46.704.6 1.152.14.448.208.95.208 1.504 0 .288-.016.528-.048.72h-5.248c.053.843.312 1.51.776 2s1.07.736 1.816.736c.373 0 .717-.056 1.032-.168.315-.112.616-.26.904-.44l.464.864c-.34.213-.72.4-1.136.56-.416.16-.89.24-1.424.24-.523 0-1.01-.093-1.464-.28-.453-.187-.848-.453-1.184-.8-.336-.347-.6-.77-.792-1.272-.192-.5-.288-1.072-.288-1.712zm5.44-.592c0-.8-.168-1.41-.504-1.832-.336-.42-.808-.632-1.416-.632-.277 0-.54.056-.792.168-.25.112-.477.272-.68.48-.203.208-.37.464-.504.768-.133.304-.22.653-.264 1.048h4.16zm3.072-3.312h1.088l.112 1.408h.048c.267-.49.59-.88.968-1.168.38-.288.792-.432 1.24-.432.31 0 .587.053.832.16l-.256 1.152c-.128-.043-.245-.075-.352-.096-.107-.02-.24-.032-.4-.032-.33 0-.675.133-1.032.4s-.67.73-.936 1.392V66h-1.312v-7.776zm4.432 0h1.36l1.472 4.416c.117.384.237.768.36 1.152.123.384.243.763.36 1.136h.064c.117-.373.235-.752.352-1.136l.352-1.152 1.472-4.416h1.296L50.56 66h-1.536l-2.8-7.776zm8.016 3.904c0-.64.1-1.213.296-1.72.197-.507.46-.936.784-1.288.325-.352.696-.62 1.112-.808.416-.187.848-.28 1.296-.28.49 0 .93.085 1.32.256.39.17.715.416.976.736.26.32.46.704.6 1.152.14.448.208.95.208 1.504 0 .288-.016.528-.048.72h-5.248c.053.843.312 1.51.776 2s1.07.736 1.816.736c.373 0 .717-.056 1.032-.168.315-.112.616-.26.904-.44l.464.864c-.34.213-.72.4-1.136.56-.416.16-.89.24-1.424.24-.523 0-1.01-.093-1.464-.28-.453-.187-.848-.453-1.184-.8-.336-.347-.6-.77-.792-1.272-.192-.5-.288-1.072-.288-1.712zm5.44-.592c0-.8-.168-1.41-.504-1.832-.336-.42-.808-.632-1.416-.632-.277 0-.54.056-.792.168-.25.112-.477.272-.68.48-.203.208-.37.464-.504.768-.133.304-.22.653-.264 1.048h4.16zm3.072-3.312h1.088l.112 1.408H64c.267-.49.59-.88.968-1.168.38-.288.792-.432 1.24-.432.31 0 .587.053.832.16l-.256 1.152c-.128-.043-.245-.075-.352-.096-.107-.02-.24-.032-.4-.032-.33 0-.675.133-1.032.4s-.67.73-.936 1.392V66h-1.312v-7.776zm4.896 3.264h3.68v1.008h-3.68v-1.008zm5.792 2.224c.373.395.813.712 1.32.952.507.24 1.032.36 1.576.36.693 0 1.232-.157 1.616-.472.384-.315.576-.728.576-1.24 0-.267-.045-.493-.136-.68-.09-.187-.213-.347-.368-.48s-.34-.253-.552-.36c-.213-.107-.443-.22-.688-.336L75.28 60.8c-.245-.107-.496-.235-.752-.384-.256-.15-.485-.33-.688-.544-.203-.213-.368-.467-.496-.76s-.192-.632-.192-1.016c0-.395.083-.763.248-1.104.165-.34.395-.637.688-.888.293-.25.64-.445 1.04-.584.4-.14.84-.208 1.32-.208.63 0 1.21.12 1.744.36.533.24.987.552 1.36.936l-.72.864c-.32-.31-.675-.552-1.064-.728-.39-.176-.83-.264-1.32-.264-.587 0-1.06.136-1.416.408-.357.272-.536.648-.536 1.128 0 .256.05.472.152.648.1.176.237.33.408.464.17.133.357.25.56.352.203.1.41.195.624.28l1.488.64c.3.128.58.275.848.44.267.165.496.357.688.576.192.22.344.475.456.768.112.293.168.632.168 1.016 0 .416-.083.805-.248 1.168-.165.363-.403.68-.712.952-.31.272-.683.485-1.12.64-.437.155-.933.232-1.488.232-.736 0-1.42-.14-2.048-.416-.63-.277-1.173-.656-1.632-1.136l.8-.928zm9.056-7.088c-.256 0-.472-.08-.648-.24-.176-.16-.264-.363-.264-.608 0-.256.088-.46.264-.616.176-.155.392-.232.648-.232s.472.077.648.232c.176.155.264.36.264.616 0 .245-.088.448-.264.608-.176.16-.392.24-.648.24zm-.672 1.6h1.312V66h-1.312v-7.776zm3.376 3.904c0-.63.093-1.197.28-1.704.187-.507.435-.936.744-1.288.31-.352.667-.624 1.072-.816.405-.192.832-.288 1.28-.288.448 0 .837.08 1.168.24.33.16.667.38 1.008.656l-.064-1.328v-2.992h1.328V66h-1.088l-.112-.912h-.048c-.31.3-.664.557-1.064.776-.4.22-.83.328-1.288.328-.98 0-1.763-.352-2.344-1.056-.58-.704-.872-1.707-.872-3.008zm1.36-.016c0 .94.187 1.67.56 2.192.373.523.9.784 1.584.784.363 0 .704-.088 1.024-.264.32-.176.64-.445.96-.808v-4.064c-.33-.3-.648-.51-.952-.632-.304-.123-.616-.184-.936-.184-.31 0-.6.072-.872.216-.272.144-.51.347-.712.608-.203.26-.363.573-.48.936-.117.363-.176.768-.176 1.216zm7.504.016c0-.64.1-1.213.296-1.72.197-.507.46-.936.784-1.288.325-.352.696-.62 1.112-.808.416-.187.848-.28 1.296-.28.49 0 .93.085 1.32.256.39.17.715.416.976.736.26.32.46.704.6 1.152.14.448.208.95.208 1.504 0 .288-.016.528-.048.72H95.36c.053.843.312 1.51.776 2s1.07.736 1.816.736c.373 0 .717-.056 1.032-.168.315-.112.616-.26.904-.44l.464.864c-.34.213-.72.4-1.136.56-.416.16-.89.24-1.424.24-.523 0-1.01-.093-1.464-.28-.453-.187-.848-.453-1.184-.8-.336-.347-.6-.77-.792-1.272-.192-.5-.288-1.072-.288-1.712zm5.44-.592c0-.8-.168-1.41-.504-1.832-.336-.42-.808-.632-1.416-.632-.277 0-.54.056-.792.168-.25.112-.477.272-.68.48-.203.208-.37.464-.504.768-.133.304-.22.653-.264 1.048h4.16zm6.432-6.032h1.328v4.4h4.88v-4.4h1.344V66h-1.344v-4.944h-4.88V66h-1.328V55.504zm12.608 1.12h-3.168v-1.12h7.68v1.12h-3.168V66h-1.344v-9.376zm8.576 0h-3.168v-1.12h7.68v1.12h-3.168V66h-1.344v-9.376zm6.4-1.12h3.216c.576 0 1.104.053 1.584.16.48.107.888.28 1.224.52.336.24.597.557.784.952.187.395.28.88.28 1.456 0 .555-.093 1.035-.28 1.44-.187.405-.45.74-.792 1.008-.34.267-.75.467-1.224.6-.475.133-1 .2-1.576.2h-1.888V66h-1.328V55.504zm3.056 5.248c.917 0 1.597-.173 2.04-.52.443-.347.664-.893.664-1.64 0-.757-.224-1.283-.672-1.576-.448-.293-1.125-.44-2.032-.44h-1.728v4.176h1.728zm10.72-.272h1.76c.82 0 1.45-.168 1.888-.504.437-.336.656-.845.656-1.528 0-.693-.22-1.18-.656-1.456-.437-.277-1.067-.416-1.888-.416h-1.76v3.904zm4.432 5.52l-2.528-4.432h-1.904V66h-1.328V55.504h3.28c.533 0 1.027.05 1.48.152.453.1.843.27 1.168.504.325.235.58.54.76.912.18.373.272.832.272 1.376 0 .82-.213 1.477-.64 1.968-.427.49-.997.827-1.712 1.008L153.232 66h-1.504zm2.832-3.872c0-.64.1-1.213.296-1.72.197-.507.46-.936.784-1.288.325-.352.696-.62 1.112-.808.416-.187.848-.28 1.296-.28.49 0 .93.085 1.32.256.39.17.715.416.976.736.26.32.46.704.6 1.152.14.448.208.95.208 1.504 0 .288-.016.528-.048.72h-5.248c.053.843.312 1.51.776 2s1.07.736 1.816.736c.373 0 .717-.056 1.032-.168.315-.112.616-.26.904-.44l.464.864c-.34.213-.72.4-1.136.56-.416.16-.89.24-1.424.24-.523 0-1.01-.093-1.464-.28-.453-.187-.848-.453-1.184-.8-.336-.347-.6-.77-.792-1.272-.192-.5-.288-1.072-.288-1.712zm5.44-.592c0-.8-.168-1.41-.504-1.832-.336-.42-.808-.632-1.416-.632-.277 0-.54.056-.792.168-.25.112-.477.272-.68.48-.203.208-.37.464-.504.768-.133.304-.22.653-.264 1.048H160zm2.512.592c0-.63.093-1.197.28-1.704.187-.507.435-.936.744-1.288.31-.352.667-.624 1.072-.816.405-.192.832-.288 1.28-.288.448 0 .843.077 1.184.232.34.155.688.387 1.04.696h.032l.128-.736h1.056V69.28H168v-2.768l.064-1.376c-.31.288-.664.536-1.064.744-.4.208-.824.312-1.272.312-.98 0-1.763-.352-2.344-1.056-.58-.704-.872-1.707-.872-3.008zm1.36-.016c0 .94.187 1.67.56 2.192.373.523.9.784 1.584.784.363 0 .704-.088 1.024-.264.32-.176.64-.445.96-.808v-4.064c-.33-.3-.648-.51-.952-.632-.304-.123-.616-.184-.936-.184-.31 0-.6.072-.872.216-.272.144-.51.347-.712.608-.203.26-.363.573-.48.936-.117.363-.176.768-.176 1.216zm7.888-3.888h1.328v4.752c0 .736.115 1.267.344 1.592.23.325.6.488 1.112.488.405 0 .763-.104 1.072-.312.31-.208.65-.54 1.024-1v-5.52h1.312V66h-1.088l-.112-1.216h-.048c-.363.427-.744.768-1.144 1.024-.4.256-.872.384-1.416.384-.832 0-1.437-.256-1.816-.768-.38-.512-.568-1.27-.568-2.272v-4.928zm8.24 3.904c0-.64.1-1.213.296-1.72.197-.507.46-.936.784-1.288.325-.352.696-.62 1.112-.808.416-.187.848-.28 1.296-.28.49 0 .93.085 1.32.256.39.17.715.416.976.736.26.32.46.704.6 1.152.14.448.208.95.208 1.504 0 .288-.016.528-.048.72h-5.248c.053.843.312 1.51.776 2s1.07.736 1.816.736c.373 0 .717-.056 1.032-.168.315-.112.616-.26.904-.44l.464.864c-.34.213-.72.4-1.136.56-.416.16-.89.24-1.424.24-.523 0-1.01-.093-1.464-.28-.453-.187-.848-.453-1.184-.8-.336-.347-.6-.77-.792-1.272-.192-.5-.288-1.072-.288-1.712zm5.44-.592c0-.8-.168-1.41-.504-1.832-.336-.42-.808-.632-1.416-.632-.277 0-.54.056-.792.168-.25.112-.477.272-.68.48-.203.208-.37.464-.504.768-.133.304-.22.653-.264 1.048h4.16zm2.864 2.704c.34.277.69.5 1.048.672.357.17.77.256 1.24.256.512 0 .896-.117 1.152-.352.256-.235.384-.523.384-.864 0-.203-.053-.38-.16-.528-.107-.15-.243-.28-.408-.392-.165-.112-.355-.21-.568-.296l-.64-.256c-.277-.096-.555-.205-.832-.328-.277-.123-.525-.272-.744-.448-.22-.176-.397-.38-.536-.616-.14-.235-.208-.517-.208-.848 0-.31.06-.6.184-.872.123-.272.3-.507.528-.704.23-.197.51-.352.84-.464.33-.112.704-.168 1.12-.168.49 0 .94.085 1.352.256.41.17.765.38 1.064.624l-.624.832c-.267-.203-.544-.368-.832-.496-.288-.128-.603-.192-.944-.192-.49 0-.85.112-1.08.336-.23.224-.344.485-.344.784 0 .18.048.34.144.472.096.133.224.25.384.352.16.1.344.192.552.272l.648.248c.277.107.557.22.84.336.283.117.536.264.76.44.224.176.408.392.552.648.144.256.216.565.216.928 0 .32-.06.62-.184.896-.123.277-.304.523-.544.736-.24.213-.54.38-.896.504-.357.123-.765.184-1.224.184-.555 0-1.083-.1-1.584-.304-.5-.203-.94-.46-1.312-.768l.656-.88zm7.136-4.944h-1.152v-.992l1.216-.08.16-2.176h1.104v2.176h2.096v1.072h-2.096v4.32c0 .48.088.85.264 1.112.176.26.488.392.936.392.14 0 .288-.02.448-.064.16-.043.304-.09.432-.144l.256.992c-.213.075-.445.14-.696.2-.25.06-.5.088-.744.088-.416 0-.765-.064-1.048-.192-.283-.128-.512-.304-.688-.528-.176-.224-.3-.496-.376-.816-.075-.32-.112-.672-.112-1.056v-4.304zm8.64 0h-1.152v-.992l1.216-.08.16-2.176h1.104v2.176h2.096v1.072h-2.096v4.32c0 .48.088.85.264 1.112.176.26.488.392.936.392.14 0 .288-.02.448-.064.16-.043.304-.09.432-.144l.256.992c-.213.075-.445.14-.696.2-.25.06-.5.088-.744.088-.416 0-.765-.064-1.048-.192-.283-.128-.512-.304-.688-.528-.176-.224-.3-.496-.376-.816-.075-.32-.112-.672-.112-1.056v-4.304zm4.608 2.832c0-.65.1-1.23.296-1.736.197-.507.46-.936.792-1.288.33-.352.712-.62 1.144-.8.432-.18.888-.272 1.368-.272.48 0 .936.09 1.368.272.432.18.813.448 1.144.8.33.352.595.78.792 1.288.197.507.296 1.085.296 1.736 0 .64-.1 1.213-.296 1.72-.197.507-.46.933-.792 1.28-.33.347-.712.61-1.144.792-.432.18-.888.272-1.368.272-.48 0-.936-.09-1.368-.272-.432-.18-.813-.445-1.144-.792-.33-.347-.595-.773-.792-1.28-.197-.507-.296-1.08-.296-1.72zm1.36 0c0 .448.053.853.16 1.216.107.363.26.675.456.936.197.26.435.464.712.608.277.144.58.216.912.216.33 0 .635-.072.912-.216.277-.144.515-.347.712-.608.197-.26.35-.573.456-.936.107-.363.16-.768.16-1.216 0-.448-.053-.856-.16-1.224-.107-.368-.26-.685-.456-.952-.197-.267-.435-.472-.712-.616-.277-.144-.58-.216-.912-.216-.33 0-.635.072-.912.216-.277.144-.515.35-.712.616-.197.267-.35.584-.456.952-.107.368-.16.776-.16 1.224zM24.984 73.456h.984v2.328l-.036 1.2c.28-.264.572-.49.876-.678.304-.188.66-.282 1.068-.282.616 0 1.066.192 1.35.576.284.384.426.952.426 1.704V82h-.984v-3.564c0-.552-.088-.95-.264-1.194-.176-.244-.456-.366-.84-.366-.304 0-.572.076-.804.228-.232.152-.496.376-.792.672V82h-.984v-8.544zm6.696 3.516h-.864v-.744l.912-.06.12-1.632h.828v1.632h1.572v.804h-1.572v3.24c0 .36.066.638.198.834.132.196.366.294.702.294.104 0 .216-.016.336-.048.12-.032.228-.068.324-.108l.192.744c-.16.056-.334.106-.522.15s-.374.066-.558.066c-.312 0-.574-.048-.786-.144-.212-.096-.384-.228-.516-.396s-.226-.372-.282-.612c-.056-.24-.084-.504-.084-.792v-3.228zm4.056 0h-.864v-.744l.912-.06.12-1.632h.828v1.632h1.572v.804h-1.572v3.24c0 .36.066.638.198.834.132.196.366.294.702.294.104 0 .216-.016.336-.048.12-.032.228-.068.324-.108l.192.744c-.16.056-.334.106-.522.15s-.374.066-.558.066c-.312 0-.574-.048-.786-.144-.212-.096-.384-.228-.516-.396s-.226-.372-.282-.612c-.056-.24-.084-.504-.084-.792v-3.228zm4.872 5.52v1.968h-.984v-8.292h.816l.084.672h.036c.264-.224.554-.416.87-.576.316-.16.646-.24.99-.24.376 0 .708.07.996.21.288.14.528.34.72.6.192.26.338.572.438.936.1.364.15.774.15 1.23 0 .496-.068.938-.204 1.326-.136.388-.32.718-.552.99-.232.272-.5.478-.804.618-.304.14-.624.21-.96.21-.272 0-.542-.06-.81-.18s-.538-.284-.81-.492l.024 1.02zm0-1.788c.264.224.52.382.768.474.248.092.468.138.66.138.24 0 .462-.054.666-.162.204-.108.38-.26.528-.456.148-.196.264-.438.348-.726.084-.288.126-.612.126-.972 0-.32-.028-.612-.084-.876-.056-.264-.146-.49-.27-.678-.124-.188-.284-.334-.48-.438-.196-.104-.43-.156-.702-.156-.248 0-.498.068-.75.204-.252.136-.522.332-.81.588v3.06zm5.52-.024c.256.208.518.376.786.504s.578.192.93.192c.384 0 .672-.088.864-.264.192-.176.288-.392.288-.648 0-.152-.04-.284-.12-.396-.08-.112-.182-.21-.306-.294-.124-.084-.266-.158-.426-.222l-.48-.192c-.208-.072-.416-.154-.624-.246-.208-.092-.394-.204-.558-.336-.164-.132-.298-.286-.402-.462-.104-.176-.156-.388-.156-.636 0-.232.046-.45.138-.654.092-.204.224-.38.396-.528.172-.148.382-.264.63-.348.248-.084.528-.126.84-.126.368 0 .706.064 1.014.192.308.128.574.284.798.468l-.468.624c-.2-.152-.408-.276-.624-.372-.216-.096-.452-.144-.708-.144-.368 0-.638.084-.81.252-.172.168-.258.364-.258.588 0 .136.036.254.108.354.072.1.168.188.288.264.12.076.258.144.414.204l.486.186c.208.08.418.164.63.252.212.088.402.198.57.33.168.132.306.294.414.486.108.192.162.424.162.696 0 .24-.046.464-.138.672-.092.208-.228.392-.408.552-.18.16-.404.286-.672.378-.268.092-.574.138-.918.138-.416 0-.812-.076-1.188-.228-.376-.152-.704-.344-.984-.576l.492-.66zm4.98-3.612c0-.232.07-.418.21-.558.14-.14.31-.21.51-.21.192 0 .358.07.498.21.14.14.21.326.21.558 0 .216-.07.394-.21.534-.14.14-.306.21-.498.21-.2 0-.37-.07-.51-.21-.14-.14-.21-.318-.21-.534zm0 4.332c0-.232.07-.418.21-.558.14-.14.31-.21.51-.21.192 0 .358.07.498.21.14.14.21.326.21.558 0 .216-.07.394-.21.534-.14.14-.306.21-.498.21-.2 0-.37-.07-.51-.21-.14-.14-.21-.318-.21-.534zm5.532-7.92h.72l-3.204 10.44h-.72l3.204-10.44zm4.2 0h.72l-3.204 10.44h-.72l3.204-10.44zm1.572 7.008c0-.64.286-1.13.858-1.47.572-.34 1.482-.578 2.73-.714 0-.184-.018-.364-.054-.54-.036-.176-.1-.332-.192-.468s-.214-.246-.366-.33c-.152-.084-.348-.126-.588-.126-.344 0-.662.064-.954.192-.292.128-.554.272-.786.432l-.396-.684c.272-.176.604-.346.996-.51.392-.164.824-.246 1.296-.246.712 0 1.228.218 1.548.654.32.436.48 1.018.48 1.746V82h-.816l-.084-.696h-.024c-.28.232-.582.43-.906.594-.324.164-.666.246-1.026.246-.496 0-.906-.144-1.23-.432-.324-.288-.486-.696-.486-1.224zm.972-.072c0 .336.098.576.294.72.196.144.438.216.726.216.28 0 .546-.066.798-.198s.518-.326.798-.582v-1.62c-.488.064-.9.14-1.236.228-.336.088-.606.192-.81.312-.204.12-.35.258-.438.414-.088.156-.132.326-.132.51zm6.444 2.076v1.968h-.984v-8.292h.816l.084.672h.036c.264-.224.554-.416.87-.576.316-.16.646-.24.99-.24.376 0 .708.07.996.21.288.14.528.34.72.6.192.26.338.572.438.936.1.364.15.774.15 1.23 0 .496-.068.938-.204 1.326-.136.388-.32.718-.552.99-.232.272-.5.478-.804.618-.304.14-.624.21-.96.21-.272 0-.542-.06-.81-.18s-.538-.284-.81-.492l.024 1.02zm0-1.788c.264.224.52.382.768.474.248.092.468.138.66.138.24 0 .462-.054.666-.162.204-.108.38-.26.528-.456.148-.196.264-.438.348-.726.084-.288.126-.612.126-.972 0-.32-.028-.612-.084-.876-.056-.264-.146-.49-.27-.678-.124-.188-.284-.334-.48-.438-.196-.104-.43-.156-.702-.156-.248 0-.498.068-.75.204-.252.136-.522.332-.81.588v3.06zm6.18-5.736c-.192 0-.354-.06-.486-.18s-.198-.272-.198-.456c0-.192.066-.346.198-.462.132-.116.294-.174.486-.174s.354.058.486.174c.132.116.198.27.198.462 0 .184-.066.336-.198.456s-.294.18-.486.18zm-.504 1.2h.984V82h-.984v-5.832zm2.748 5.232c0-.232.07-.418.21-.558.14-.14.31-.21.51-.21.192 0 .358.07.498.21.14.14.21.326.21.558 0 .216-.07.394-.21.534-.14.14-.306.21-.498.21-.2 0-.37-.07-.51-.21-.14-.14-.21-.318-.21-.534zm3.612 1.584c0 .312.15.56.45.744.3.184.714.276 1.242.276.28 0 .534-.034.762-.102.228-.068.422-.156.582-.264.16-.108.284-.234.372-.378.088-.144.132-.292.132-.444 0-.272-.1-.46-.3-.564-.2-.104-.492-.156-.876-.156H83.22c-.112 0-.234-.006-.366-.018-.132-.012-.262-.038-.39-.078-.208.152-.36.312-.456.48-.096.168-.144.336-.144.504zm-.864.132c0-.248.076-.484.228-.708.152-.224.36-.428.624-.612v-.048c-.144-.088-.266-.21-.366-.366-.1-.156-.15-.35-.15-.582 0-.248.068-.464.204-.648.136-.184.28-.328.432-.432v-.048c-.192-.16-.366-.374-.522-.642-.156-.268-.234-.578-.234-.93 0-.32.058-.608.174-.864.116-.256.274-.474.474-.654.2-.18.434-.318.702-.414.268-.096.55-.144.846-.144.16 0 .31.014.45.042.14.028.266.062.378.102h2.028v.756h-1.2c.136.136.25.308.342.516.092.208.138.436.138.684 0 .312-.056.594-.168.846-.112.252-.264.464-.456.636s-.418.306-.678.402c-.26.096-.538.144-.834.144-.144 0-.292-.018-.444-.054-.152-.036-.296-.086-.432-.15-.104.088-.192.186-.264.294-.072.108-.108.242-.108.402 0 .184.072.336.216.456.144.12.416.18.816.18h1.128c.68 0 1.19.11 1.53.33.34.22.51.574.51 1.062 0 .272-.068.53-.204.774-.136.244-.332.458-.588.642-.256.184-.566.33-.93.438-.364.108-.774.162-1.23.162-.36 0-.688-.034-.984-.102-.296-.068-.55-.17-.762-.306-.212-.136-.376-.3-.492-.492-.116-.192-.174-.416-.174-.672zm2.412-3.624c.168 0 .326-.032.474-.096.148-.064.28-.156.396-.276.116-.12.206-.266.27-.438.064-.172.096-.366.096-.582 0-.432-.12-.766-.36-1.002s-.532-.354-.876-.354-.636.118-.876.354-.36.57-.36 1.002c0 .216.032.41.096.582s.154.318.27.438c.116.12.248.212.396.276.148.064.306.096.474.096zm4.584-4.524c-.192 0-.354-.06-.486-.18s-.198-.272-.198-.456c0-.192.066-.346.198-.462.132-.116.294-.174.486-.174s.354.058.486.174c.132.116.198.27.198.462 0 .184-.066.336-.198.456s-.294.18-.486.18zm-.504 1.2h.984V82h-.984v-5.832zm3.12.804h-.864v-.744l.912-.06.12-1.632h.828v1.632h1.572v.804h-1.572v3.24c0 .36.066.638.198.834.132.196.366.294.702.294.104 0 .216-.016.336-.048.12-.032.228-.068.324-.108l.192.744c-.16.056-.334.106-.522.15s-.374.066-.558.066c-.312 0-.574-.048-.786-.144-.212-.096-.384-.228-.516-.396s-.226-.372-.282-.612c-.056-.24-.084-.504-.084-.792v-3.228zm3.888-3.516h.984v2.328l-.036 1.2c.28-.264.572-.49.876-.678.304-.188.66-.282 1.068-.282.616 0 1.066.192 1.35.576.284.384.426.952.426 1.704V82h-.984v-3.564c0-.552-.088-.95-.264-1.194-.176-.244-.456-.366-.84-.366-.304 0-.572.076-.804.228-.232.152-.496.376-.792.672V82H94.5v-8.544zm6.444 2.712h.996v3.564c0 .552.086.95.258 1.194.172.244.45.366.834.366.304 0 .572-.078.804-.234.232-.156.488-.406.768-.75v-4.14h.984V82h-.816l-.084-.912h-.036c-.272.32-.558.576-.858.768-.3.192-.654.288-1.062.288-.624 0-1.078-.192-1.362-.576-.284-.384-.426-.952-.426-1.704v-3.696zm6.612-2.712h.984v2.328l-.024 1.056c.264-.232.552-.426.864-.582.312-.156.632-.234.96-.234.376 0 .708.07.996.21.288.14.53.34.726.6.196.26.344.572.444.936.1.364.15.77.15 1.218 0 .496-.068.94-.204 1.332-.136.392-.32.724-.552.996-.232.272-.5.478-.804.618-.304.14-.624.21-.96.21-.272 0-.554-.062-.846-.186-.292-.124-.566-.302-.822-.534h-.036l-.084.576h-.792v-8.544zm.984 7.248c.256.224.51.382.762.474.252.092.474.138.666.138.24 0 .462-.054.666-.162.204-.108.38-.26.528-.456.148-.196.264-.438.348-.726.084-.288.126-.612.126-.972 0-.32-.028-.612-.084-.876-.056-.264-.146-.49-.27-.678-.124-.188-.284-.334-.48-.438-.196-.104-.43-.156-.702-.156-.472 0-.992.264-1.56.792v3.06zm5.472.696c0-.232.07-.418.21-.558.14-.14.31-.21.51-.21.192 0 .358.07.498.21.14.14.21.326.21.558 0 .216-.07.394-.21.534-.14.14-.306.21-.498.21-.2 0-.37-.07-.51-.21-.14-.14-.21-.318-.21-.534zm2.76-2.304c0-.488.076-.922.228-1.302.152-.38.356-.702.612-.966s.554-.464.894-.6c.34-.136.698-.204 1.074-.204.384 0 .714.07.99.21.276.14.514.302.714.486l-.492.636c-.176-.152-.358-.276-.546-.372-.188-.096-.398-.144-.63-.144-.264 0-.508.054-.732.162-.224.108-.416.262-.576.462-.16.2-.286.438-.378.714-.092.276-.138.582-.138.918 0 .336.044.64.132.912.088.272.21.506.366.702.156.196.346.348.57.456.224.108.468.162.732.162.28 0 .534-.058.762-.174.228-.116.43-.254.606-.414l.444.648c-.264.232-.558.416-.882.552-.324.136-.662.204-1.014.204-.384 0-.744-.068-1.08-.204-.336-.136-.626-.334-.87-.594-.244-.26-.436-.58-.576-.96-.14-.38-.21-.81-.21-1.29zm5.472 0c0-.488.074-.922.222-1.302.148-.38.346-.702.594-.966s.534-.464.858-.6c.324-.136.666-.204 1.026-.204s.702.068 1.026.204c.324.136.61.336.858.6.248.264.446.586.594.966.148.38.222.814.222 1.302 0 .48-.074.91-.222 1.29-.148.38-.346.7-.594.96s-.534.458-.858.594c-.324.136-.666.204-1.026.204s-.702-.068-1.026-.204c-.324-.136-.61-.334-.858-.594-.248-.26-.446-.58-.594-.96-.148-.38-.222-.81-.222-1.29zm1.02 0c0 .336.04.64.12.912.08.272.194.506.342.702.148.196.326.348.534.456.208.108.436.162.684.162.248 0 .476-.054.684-.162.208-.108.386-.26.534-.456.148-.196.262-.43.342-.702.08-.272.12-.576.12-.912 0-.336-.04-.642-.12-.918-.08-.276-.194-.514-.342-.714-.148-.2-.326-.354-.534-.462-.208-.108-.436-.162-.684-.162-.248 0-.476.054-.684.162-.208.108-.386.262-.534.462-.148.2-.262.438-.342.714-.08.276-.12.582-.12.918zm5.916-2.928h.816l.084.84h.036c.256-.28.534-.514.834-.702.3-.188.626-.282.978-.282.448 0 .798.098 1.05.294.252.196.438.47.558.822.304-.336.61-.606.918-.81.308-.204.642-.306 1.002-.306.6 0 1.046.192 1.338.576.292.384.438.952.438 1.704V82h-.984v-3.564c0-.552-.088-.95-.264-1.194-.176-.244-.448-.366-.816-.366-.44 0-.928.3-1.464.9V82h-.984v-3.564c0-.552-.088-.95-.264-1.194-.176-.244-.452-.366-.828-.366-.44 0-.928.3-1.464.9V82h-.984v-5.832zm12.288-2.688h.72l-3.204 10.44h-.72l3.204-10.44zm2.004 7.92c0-.232.07-.418.21-.558.14-.14.31-.21.51-.21.192 0 .358.07.498.21.14.14.21.326.21.558 0 .216-.07.394-.21.534-.14.14-.306.21-.498.21-.2 0-.37-.07-.51-.21-.14-.14-.21-.318-.21-.534zm4.02 0c0-.232.07-.418.21-.558.14-.14.31-.21.51-.21.192 0 .358.07.498.21.14.14.21.326.21.558 0 .216-.07.394-.21.534-.14.14-.306.21-.498.21-.2 0-.37-.07-.51-.21-.14-.14-.21-.318-.21-.534zm4.02 0c0-.232.07-.418.21-.558.14-.14.31-.21.51-.21.192 0 .358.07.498.21.14.14.21.326.21.558 0 .216-.07.394-.21.534-.14.14-.306.21-.498.21-.2 0-.37-.07-.51-.21-.14-.14-.21-.318-.21-.534zm2.988 0c0-.232.07-.418.21-.558.14-.14.31-.21.51-.21.192 0 .358.07.498.21.14.14.21.326.21.558 0 .216-.07.394-.21.534-.14.14-.306.21-.498.21-.2 0-.37-.07-.51-.21-.14-.14-.21-.318-.21-.534z" id="Server-Side-HTTP-Req" fill="#BC00B9"/></g><g id="frame-01" transform="translate(364 113)"><path d="M9.5.5v109" id="Line" stroke="#BC00B9" stroke-width="3" stroke-linecap="square"/><path id="Triangle" fill="#BC00B9" d="M9 114l9-18H0z"/><circle id="Oval" fill="#BC00B9" cx="37" cy="30" r="14"/><path d="M34.396 32.096h2.208v-5.872H34.7v-1.456c.555-.107 1.024-.235 1.408-.384.384-.15.757-.33 1.12-.544h1.728v8.256h1.904V34h-6.464v-1.904z" id="1" fill="#FFF"/><path d="M25.44 55.504h3.12c.533 0 1.02.048 1.464.144.443.096.82.245 1.136.448.315.203.56.467.736.792.176.325.264.717.264 1.176 0 .523-.15.995-.448 1.416-.3.42-.757.712-1.376.872v.064c.768.117 1.365.384 1.792.8.427.416.64.987.64 1.712 0 .512-.096.96-.288 1.344-.192.384-.464.704-.816.96-.352.256-.773.448-1.264.576-.49.128-1.03.192-1.616.192H25.44V55.504zm2.88 4.48c.907 0 1.555-.155 1.944-.464.39-.31.584-.757.584-1.344 0-.576-.205-.99-.616-1.24-.41-.25-1.027-.376-1.848-.376h-1.616v3.424h1.552zm.272 4.96c.907 0 1.61-.168 2.112-.504.5-.336.752-.86.752-1.576 0-.65-.245-1.128-.736-1.432-.49-.304-1.2-.456-2.128-.456h-1.824v3.968h1.824zm6.128-6.72h1.088l.112 1.408h.048c.267-.49.59-.88.968-1.168.38-.288.792-.432 1.24-.432.31 0 .587.053.832.16l-.256 1.152c-.128-.043-.245-.075-.352-.096-.107-.02-.24-.032-.4-.032-.33 0-.675.133-1.032.4s-.67.73-.936 1.392V66H34.72v-7.776zm4.976 3.904c0-.65.1-1.23.296-1.736.197-.507.46-.936.792-1.288.33-.352.712-.62 1.144-.8.432-.18.888-.272 1.368-.272.48 0 .936.09 1.368.272.432.18.813.448 1.144.8.33.352.595.78.792 1.288.197.507.296 1.085.296 1.736 0 .64-.1 1.213-.296 1.72-.197.507-.46.933-.792 1.28-.33.347-.712.61-1.144.792-.432.18-.888.272-1.368.272-.48 0-.936-.09-1.368-.272-.432-.18-.813-.445-1.144-.792-.33-.347-.595-.773-.792-1.28-.197-.507-.296-1.08-.296-1.72zm1.36 0c0 .448.053.853.16 1.216.107.363.26.675.456.936.197.26.435.464.712.608.277.144.58.216.912.216.33 0 .635-.072.912-.216.277-.144.515-.347.712-.608.197-.26.35-.573.456-.936.107-.363.16-.768.16-1.216 0-.448-.053-.856-.16-1.224-.107-.368-.26-.685-.456-.952-.197-.267-.435-.472-.712-.616-.277-.144-.58-.216-.912-.216-.33 0-.635.072-.912.216-.277.144-.515.35-.712.616-.197.267-.35.584-.456.952-.107.368-.16.776-.16 1.224zm6.96-3.904h1.344l1.152 4.496c.085.373.165.736.24 1.088.075.352.15.71.224 1.072h.064c.085-.363.17-.723.256-1.08.085-.357.176-.717.272-1.08l1.2-4.496h1.28l1.216 4.496.28 1.088c.09.352.18.71.264 1.072h.064c.085-.363.165-.72.24-1.072.075-.352.155-.715.24-1.088l1.136-4.496h1.248L56.656 66h-1.6l-1.12-4.176c-.096-.373-.184-.74-.264-1.104-.08-.363-.168-.74-.264-1.136h-.064c-.085.395-.17.776-.256 1.144-.085.368-.18.74-.288 1.112L51.712 66h-1.536l-2.16-7.776zm12.208 6.016c.34.277.69.5 1.048.672.357.17.77.256 1.24.256.512 0 .896-.117 1.152-.352.256-.235.384-.523.384-.864 0-.203-.053-.38-.16-.528-.107-.15-.243-.28-.408-.392-.165-.112-.355-.21-.568-.296l-.64-.256c-.277-.096-.555-.205-.832-.328-.277-.123-.525-.272-.744-.448-.22-.176-.397-.38-.536-.616-.14-.235-.208-.517-.208-.848 0-.31.06-.6.184-.872.123-.272.3-.507.528-.704.23-.197.51-.352.84-.464.33-.112.704-.168 1.12-.168.49 0 .94.085 1.352.256.41.17.765.38 1.064.624l-.624.832c-.267-.203-.544-.368-.832-.496-.288-.128-.603-.192-.944-.192-.49 0-.85.112-1.08.336-.23.224-.344.485-.344.784 0 .18.048.34.144.472.096.133.224.25.384.352.16.1.344.192.552.272l.648.248c.277.107.557.22.84.336.283.117.536.264.76.44.224.176.408.392.552.648.144.256.216.565.216.928 0 .32-.06.62-.184.896-.123.277-.304.523-.544.736-.24.213-.54.38-.896.504-.357.123-.765.184-1.224.184-.555 0-1.083-.1-1.584-.304-.5-.203-.94-.46-1.312-.768l.656-.88zm6.336-2.112c0-.64.1-1.213.296-1.72.197-.507.46-.936.784-1.288.325-.352.696-.62 1.112-.808.416-.187.848-.28 1.296-.28.49 0 .93.085 1.32.256.39.17.715.416.976.736.26.32.46.704.6 1.152.14.448.208.95.208 1.504 0 .288-.016.528-.048.72h-5.248c.053.843.312 1.51.776 2s1.07.736 1.816.736c.373 0 .717-.056 1.032-.168.315-.112.616-.26.904-.44l.464.864c-.34.213-.72.4-1.136.56-.416.16-.89.24-1.424.24-.523 0-1.01-.093-1.464-.28-.453-.187-.848-.453-1.184-.8-.336-.347-.6-.77-.792-1.272-.192-.5-.288-1.072-.288-1.712zm5.44-.592c0-.8-.168-1.41-.504-1.832-.336-.42-.808-.632-1.416-.632-.277 0-.54.056-.792.168-.25.112-.477.272-.68.48-.203.208-.37.464-.504.768-.133.304-.22.653-.264 1.048H72zm3.072-3.312h1.088l.112 1.408h.048c.267-.49.59-.88.968-1.168.38-.288.792-.432 1.24-.432.31 0 .587.053.832.16l-.256 1.152c-.128-.043-.245-.075-.352-.096-.107-.02-.24-.032-.4-.032-.33 0-.675.133-1.032.4s-.67.73-.936 1.392V66h-1.312v-7.776zm8.784 0h1.088l.112 1.408h.048c.267-.49.59-.88.968-1.168.38-.288.792-.432 1.24-.432.31 0 .587.053.832.16l-.256 1.152c-.128-.043-.245-.075-.352-.096-.107-.02-.24-.032-.4-.032-.33 0-.675.133-1.032.4s-.67.73-.936 1.392V66h-1.312v-7.776zm4.976 3.904c0-.64.1-1.213.296-1.72.197-.507.46-.936.784-1.288.325-.352.696-.62 1.112-.808.416-.187.848-.28 1.296-.28.49 0 .93.085 1.32.256.39.17.715.416.976.736.26.32.46.704.6 1.152.14.448.208.95.208 1.504 0 .288-.016.528-.048.72h-5.248c.053.843.312 1.51.776 2s1.07.736 1.816.736c.373 0 .717-.056 1.032-.168.315-.112.616-.26.904-.44l.464.864c-.34.213-.72.4-1.136.56-.416.16-.89.24-1.424.24-.523 0-1.01-.093-1.464-.28-.453-.187-.848-.453-1.184-.8-.336-.347-.6-.77-.792-1.272-.192-.5-.288-1.072-.288-1.712zm5.44-.592c0-.8-.168-1.41-.504-1.832-.336-.42-.808-.632-1.416-.632-.277 0-.54.056-.792.168-.25.112-.477.272-.68.48-.203.208-.37.464-.504.768-.133.304-.22.653-.264 1.048h4.16zm2.512.592c0-.63.093-1.197.28-1.704.187-.507.435-.936.744-1.288.31-.352.667-.624 1.072-.816.405-.192.832-.288 1.28-.288.448 0 .837.08 1.168.24.33.16.667.38 1.008.656l-.064-1.328v-2.992h1.328V66h-1.088l-.112-.912h-.048c-.31.3-.664.557-1.064.776-.4.22-.83.328-1.288.328-.98 0-1.763-.352-2.344-1.056-.58-.704-.872-1.707-.872-3.008zm1.36-.016c0 .94.187 1.67.56 2.192.373.523.9.784 1.584.784.363 0 .704-.088 1.024-.264.32-.176.64-.445.96-.808v-4.064c-.33-.3-.648-.51-.952-.632-.304-.123-.616-.184-.936-.184-.31 0-.6.072-.872.216-.272.144-.51.347-.712.608-.203.26-.363.573-.48.936-.117.363-.176.768-.176 1.216zm8.752-5.488c-.256 0-.472-.08-.648-.24-.176-.16-.264-.363-.264-.608 0-.256.088-.46.264-.616.176-.155.392-.232.648-.232s.472.077.648.232c.176.155.264.36.264.616 0 .245-.088.448-.264.608-.176.16-.392.24-.648.24zm-.672 1.6h1.312V66h-1.312v-7.776zm3.936 0h1.088l.112 1.408h.048c.267-.49.59-.88.968-1.168.38-.288.792-.432 1.24-.432.31 0 .587.053.832.16l-.256 1.152c-.128-.043-.245-.075-.352-.096-.107-.02-.24-.032-.4-.032-.33 0-.675.133-1.032.4s-.67.73-.936 1.392V66h-1.312v-7.776zm4.976 3.904c0-.64.1-1.213.296-1.72.197-.507.46-.936.784-1.288.325-.352.696-.62 1.112-.808.416-.187.848-.28 1.296-.28.49 0 .93.085 1.32.256.39.17.715.416.976.736.26.32.46.704.6 1.152.14.448.208.95.208 1.504 0 .288-.016.528-.048.72h-5.248c.053.843.312 1.51.776 2s1.07.736 1.816.736c.373 0 .717-.056 1.032-.168.315-.112.616-.26.904-.44l.464.864c-.34.213-.72.4-1.136.56-.416.16-.89.24-1.424.24-.523 0-1.01-.093-1.464-.28-.453-.187-.848-.453-1.184-.8-.336-.347-.6-.77-.792-1.272-.192-.5-.288-1.072-.288-1.712zm5.44-.592c0-.8-.168-1.41-.504-1.832-.336-.42-.808-.632-1.416-.632-.277 0-.54.056-.792.168-.25.112-.477.272-.68.48-.203.208-.37.464-.504.768-.133.304-.22.653-.264 1.048h4.16zm2.496.592c0-.65.1-1.23.304-1.736.203-.507.475-.936.816-1.288.34-.352.74-.62 1.192-.8.453-.18.93-.272 1.432-.272.512 0 .952.093 1.32.28.368.187.685.403.952.648l-.656.848c-.235-.203-.477-.368-.728-.496-.25-.128-.53-.192-.84-.192-.352 0-.677.072-.976.216-.3.144-.555.35-.768.616-.213.267-.38.584-.504.952-.123.368-.184.776-.184 1.224 0 .448.06.853.176 1.216.117.363.28.675.488.936.208.26.46.464.76.608.3.144.624.216.976.216.373 0 .712-.077 1.016-.232.304-.155.573-.34.808-.552l.592.864c-.352.31-.744.555-1.176.736-.432.18-.883.272-1.352.272-.512 0-.992-.09-1.44-.272-.448-.18-.835-.445-1.16-.792-.325-.347-.58-.773-.768-1.28-.187-.507-.28-1.08-.28-1.72zm8.096-2.832h-1.152v-.992l1.216-.08.16-2.176h1.104v2.176h2.096v1.072h-2.096v4.32c0 .48.088.85.264 1.112.176.26.488.392.936.392.14 0 .288-.02.448-.064.16-.043.304-.09.432-.144l.256.992c-.213.075-.445.14-.696.2-.25.06-.5.088-.744.088-.416 0-.765-.064-1.048-.192-.283-.128-.512-.304-.688-.528-.176-.224-.3-.496-.376-.816-.075-.32-.112-.672-.112-1.056v-4.304zm8.64 0h-1.152v-.992l1.216-.08.16-2.176h1.104v2.176h2.096v1.072h-2.096v4.32c0 .48.088.85.264 1.112.176.26.488.392.936.392.14 0 .288-.02.448-.064.16-.043.304-.09.432-.144l.256.992c-.213.075-.445.14-.696.2-.25.06-.5.088-.744.088-.416 0-.765-.064-1.048-.192-.283-.128-.512-.304-.688-.528-.176-.224-.3-.496-.376-.816-.075-.32-.112-.672-.112-1.056v-4.304zm4.608 2.832c0-.65.1-1.23.296-1.736.197-.507.46-.936.792-1.288.33-.352.712-.62 1.144-.8.432-.18.888-.272 1.368-.272.48 0 .936.09 1.368.272.432.18.813.448 1.144.8.33.352.595.78.792 1.288.197.507.296 1.085.296 1.736 0 .64-.1 1.213-.296 1.72-.197.507-.46.933-.792 1.28-.33.347-.712.61-1.144.792-.432.18-.888.272-1.368.272-.48 0-.936-.09-1.368-.272-.432-.18-.813-.445-1.144-.792-.33-.347-.595-.773-.792-1.28-.197-.507-.296-1.08-.296-1.72zm1.36 0c0 .448.053.853.16 1.216.107.363.26.675.456.936.197.26.435.464.712.608.277.144.58.216.912.216.33 0 .635-.072.912-.216.277-.144.515-.347.712-.608.197-.26.35-.573.456-.936.107-.363.16-.768.16-1.216 0-.448-.053-.856-.16-1.224-.107-.368-.26-.685-.456-.952-.197-.267-.435-.472-.712-.616-.277-.144-.58-.216-.912-.216-.33 0-.635.072-.912.216-.277.144-.515.35-.712.616-.197.267-.35.584-.456.952-.107.368-.16.776-.16 1.224zM24.984 73.456h.984v2.328l-.036 1.2c.28-.264.572-.49.876-.678.304-.188.66-.282 1.068-.282.616 0 1.066.192 1.35.576.284.384.426.952.426 1.704V82h-.984v-3.564c0-.552-.088-.95-.264-1.194-.176-.244-.456-.366-.84-.366-.304 0-.572.076-.804.228-.232.152-.496.376-.792.672V82h-.984v-8.544zm6.696 3.516h-.864v-.744l.912-.06.12-1.632h.828v1.632h1.572v.804h-1.572v3.24c0 .36.066.638.198.834.132.196.366.294.702.294.104 0 .216-.016.336-.048.12-.032.228-.068.324-.108l.192.744c-.16.056-.334.106-.522.15s-.374.066-.558.066c-.312 0-.574-.048-.786-.144-.212-.096-.384-.228-.516-.396s-.226-.372-.282-.612c-.056-.24-.084-.504-.084-.792v-3.228zm4.056 0h-.864v-.744l.912-.06.12-1.632h.828v1.632h1.572v.804h-1.572v3.24c0 .36.066.638.198.834.132.196.366.294.702.294.104 0 .216-.016.336-.048.12-.032.228-.068.324-.108l.192.744c-.16.056-.334.106-.522.15s-.374.066-.558.066c-.312 0-.574-.048-.786-.144-.212-.096-.384-.228-.516-.396s-.226-.372-.282-.612c-.056-.24-.084-.504-.084-.792v-3.228zm4.872 5.52v1.968h-.984v-8.292h.816l.084.672h.036c.264-.224.554-.416.87-.576.316-.16.646-.24.99-.24.376 0 .708.07.996.21.288.14.528.34.72.6.192.26.338.572.438.936.1.364.15.774.15 1.23 0 .496-.068.938-.204 1.326-.136.388-.32.718-.552.99-.232.272-.5.478-.804.618-.304.14-.624.21-.96.21-.272 0-.542-.06-.81-.18s-.538-.284-.81-.492l.024 1.02zm0-1.788c.264.224.52.382.768.474.248.092.468.138.66.138.24 0 .462-.054.666-.162.204-.108.38-.26.528-.456.148-.196.264-.438.348-.726.084-.288.126-.612.126-.972 0-.32-.028-.612-.084-.876-.056-.264-.146-.49-.27-.678-.124-.188-.284-.334-.48-.438-.196-.104-.43-.156-.702-.156-.248 0-.498.068-.75.204-.252.136-.522.332-.81.588v3.06zm5.52-.024c.256.208.518.376.786.504s.578.192.93.192c.384 0 .672-.088.864-.264.192-.176.288-.392.288-.648 0-.152-.04-.284-.12-.396-.08-.112-.182-.21-.306-.294-.124-.084-.266-.158-.426-.222l-.48-.192c-.208-.072-.416-.154-.624-.246-.208-.092-.394-.204-.558-.336-.164-.132-.298-.286-.402-.462-.104-.176-.156-.388-.156-.636 0-.232.046-.45.138-.654.092-.204.224-.38.396-.528.172-.148.382-.264.63-.348.248-.084.528-.126.84-.126.368 0 .706.064 1.014.192.308.128.574.284.798.468l-.468.624c-.2-.152-.408-.276-.624-.372-.216-.096-.452-.144-.708-.144-.368 0-.638.084-.81.252-.172.168-.258.364-.258.588 0 .136.036.254.108.354.072.1.168.188.288.264.12.076.258.144.414.204l.486.186c.208.08.418.164.63.252.212.088.402.198.57.33.168.132.306.294.414.486.108.192.162.424.162.696 0 .24-.046.464-.138.672-.092.208-.228.392-.408.552-.18.16-.404.286-.672.378-.268.092-.574.138-.918.138-.416 0-.812-.076-1.188-.228-.376-.152-.704-.344-.984-.576l.492-.66zm4.98-3.612c0-.232.07-.418.21-.558.14-.14.31-.21.51-.21.192 0 .358.07.498.21.14.14.21.326.21.558 0 .216-.07.394-.21.534-.14.14-.306.21-.498.21-.2 0-.37-.07-.51-.21-.14-.14-.21-.318-.21-.534zm0 4.332c0-.232.07-.418.21-.558.14-.14.31-.21.51-.21.192 0 .358.07.498.21.14.14.21.326.21.558 0 .216-.07.394-.21.534-.14.14-.306.21-.498.21-.2 0-.37-.07-.51-.21-.14-.14-.21-.318-.21-.534zm5.532-7.92h.72l-3.204 10.44h-.72l3.204-10.44zm4.2 0h.72l-3.204 10.44h-.72l3.204-10.44zm1.572 7.008c0-.64.286-1.13.858-1.47.572-.34 1.482-.578 2.73-.714 0-.184-.018-.364-.054-.54-.036-.176-.1-.332-.192-.468s-.214-.246-.366-.33c-.152-.084-.348-.126-.588-.126-.344 0-.662.064-.954.192-.292.128-.554.272-.786.432l-.396-.684c.272-.176.604-.346.996-.51.392-.164.824-.246 1.296-.246.712 0 1.228.218 1.548.654.32.436.48 1.018.48 1.746V82h-.816l-.084-.696h-.024c-.28.232-.582.43-.906.594-.324.164-.666.246-1.026.246-.496 0-.906-.144-1.23-.432-.324-.288-.486-.696-.486-1.224zm.972-.072c0 .336.098.576.294.72.196.144.438.216.726.216.28 0 .546-.066.798-.198s.518-.326.798-.582v-1.62c-.488.064-.9.14-1.236.228-.336.088-.606.192-.81.312-.204.12-.35.258-.438.414-.088.156-.132.326-.132.51zm5.376-4.248h.996v3.564c0 .552.086.95.258 1.194.172.244.45.366.834.366.304 0 .572-.078.804-.234.232-.156.488-.406.768-.75v-4.14h.984V82h-.816l-.084-.912h-.036c-.272.32-.558.576-.858.768-.3.192-.654.288-1.062.288-.624 0-1.078-.192-1.362-.576-.284-.384-.426-.952-.426-1.704v-3.696zm6.78.804h-.864v-.744l.912-.06.12-1.632h.828v1.632h1.572v.804h-1.572v3.24c0 .36.066.638.198.834.132.196.366.294.702.294.104 0 .216-.016.336-.048.12-.032.228-.068.324-.108l.192.744c-.16.056-.334.106-.522.15s-.374.066-.558.066c-.312 0-.574-.048-.786-.144-.212-.096-.384-.228-.516-.396s-.226-.372-.282-.612c-.056-.24-.084-.504-.084-.792v-3.228zm3.888-3.516h.984v2.328l-.036 1.2c.28-.264.572-.49.876-.678.304-.188.66-.282 1.068-.282.616 0 1.066.192 1.35.576.284.384.426.952.426 1.704V82h-.984v-3.564c0-.552-.088-.95-.264-1.194-.176-.244-.456-.366-.84-.366-.304 0-.572.076-.804.228-.232.152-.496.376-.792.672V82h-.984v-8.544zm6.036 5.16h2.76v.756h-2.76v-.756zm4.068 2.064c.256.208.518.376.786.504s.578.192.93.192c.384 0 .672-.088.864-.264.192-.176.288-.392.288-.648 0-.152-.04-.284-.12-.396-.08-.112-.182-.21-.306-.294-.124-.084-.266-.158-.426-.222l-.48-.192c-.208-.072-.416-.154-.624-.246-.208-.092-.394-.204-.558-.336-.164-.132-.298-.286-.402-.462-.104-.176-.156-.388-.156-.636 0-.232.046-.45.138-.654.092-.204.224-.38.396-.528.172-.148.382-.264.63-.348.248-.084.528-.126.84-.126.368 0 .706.064 1.014.192.308.128.574.284.798.468l-.468.624c-.2-.152-.408-.276-.624-.372-.216-.096-.452-.144-.708-.144-.368 0-.638.084-.81.252-.172.168-.258.364-.258.588 0 .136.036.254.108.354.072.1.168.188.288.264.12.076.258.144.414.204l.486.186c.208.08.418.164.63.252.212.088.402.198.57.33.168.132.306.294.414.486.108.192.162.424.162.696 0 .24-.046.464-.138.672-.092.208-.228.392-.408.552-.18.16-.404.286-.672.378-.268.092-.574.138-.918.138-.416 0-.812-.076-1.188-.228-.376-.152-.704-.344-.984-.576l.492-.66zm4.752-1.584c0-.48.074-.91.222-1.29.148-.38.344-.702.588-.966s.522-.466.834-.606c.312-.14.636-.21.972-.21.368 0 .698.064.99.192.292.128.536.312.732.552.196.24.346.528.45.864.104.336.156.712.156 1.128 0 .216-.012.396-.036.54h-3.936c.04.632.234 1.132.582 1.5.348.368.802.552 1.362.552.28 0 .538-.042.774-.126.236-.084.462-.194.678-.33l.348.648c-.256.16-.54.3-.852.42-.312.12-.668.18-1.068.18-.392 0-.758-.07-1.098-.21-.34-.14-.636-.34-.888-.6-.252-.26-.45-.578-.594-.954-.144-.376-.216-.804-.216-1.284zm4.08-.444c0-.6-.126-1.058-.378-1.374-.252-.316-.606-.474-1.062-.474-.208 0-.406.042-.594.126-.188.084-.358.204-.51.36-.152.156-.278.348-.378.576-.1.228-.166.49-.198.786h3.12zm2.304-2.484h.816l.084 1.056h.036c.2-.368.442-.66.726-.876.284-.216.594-.324.93-.324.232 0 .44.04.624.12l-.192.864c-.096-.032-.184-.056-.264-.072-.08-.016-.18-.024-.3-.024-.248 0-.506.1-.774.3-.268.2-.502.548-.702 1.044V82h-.984v-5.832zm3.324 0h1.02l1.104 3.312c.088.288.178.576.27.864l.27.852h.048c.088-.28.176-.564.264-.852l.264-.864 1.104-3.312h.972L107.244 82h-1.152l-2.1-5.832zm6.012 2.928c0-.48.074-.91.222-1.29.148-.38.344-.702.588-.966s.522-.466.834-.606c.312-.14.636-.21.972-.21.368 0 .698.064.99.192.292.128.536.312.732.552.196.24.346.528.45.864.104.336.156.712.156 1.128 0 .216-.012.396-.036.54h-3.936c.04.632.234 1.132.582 1.5.348.368.802.552 1.362.552.28 0 .538-.042.774-.126.236-.084.462-.194.678-.33l.348.648c-.256.16-.54.3-.852.42-.312.12-.668.18-1.068.18-.392 0-.758-.07-1.098-.21-.34-.14-.636-.34-.888-.6-.252-.26-.45-.578-.594-.954-.144-.376-.216-.804-.216-1.284zm4.08-.444c0-.6-.126-1.058-.378-1.374-.252-.316-.606-.474-1.062-.474-.208 0-.406.042-.594.126-.188.084-.358.204-.51.36-.152.156-.278.348-.378.576-.1.228-.166.49-.198.786h3.12zm2.304-2.484h.816l.084 1.056h.036c.2-.368.442-.66.726-.876.284-.216.594-.324.93-.324.232 0 .44.04.624.12l-.192.864c-.096-.032-.184-.056-.264-.072-.08-.016-.18-.024-.3-.024-.248 0-.506.1-.774.3-.268.2-.502.548-.702 1.044V82h-.984v-5.832zm3.96 5.232c0-.232.07-.418.21-.558.14-.14.31-.21.51-.21.192 0 .358.07.498.21.14.14.21.326.21.558 0 .216-.07.394-.21.534-.14.14-.306.21-.498.21-.2 0-.37-.07-.51-.21-.14-.14-.21-.318-.21-.534zm5.82-7.14c-.216-.096-.436-.144-.66-.144-.544 0-.816.376-.816 1.128v.924h1.236v.804h-1.236V82h-.984v-5.028h-.792v-.744l.792-.06v-.924c0-.6.138-1.072.414-1.416.276-.344.706-.516 1.29-.516.184 0 .358.018.522.054.164.036.314.082.45.138l-.216.756zm.444 4.836c0-.488.074-.922.222-1.302.148-.38.346-.702.594-.966s.534-.464.858-.6c.324-.136.666-.204 1.026-.204s.702.068 1.026.204c.324.136.61.336.858.6.248.264.446.586.594.966.148.38.222.814.222 1.302 0 .48-.074.91-.222 1.29-.148.38-.346.7-.594.96s-.534.458-.858.594c-.324.136-.666.204-1.026.204s-.702-.068-1.026-.204c-.324-.136-.61-.334-.858-.594-.248-.26-.446-.58-.594-.96-.148-.38-.222-.81-.222-1.29zm1.02 0c0 .336.04.64.12.912.08.272.194.506.342.702.148.196.326.348.534.456.208.108.436.162.684.162.248 0 .476-.054.684-.162.208-.108.386-.26.534-.456.148-.196.262-.43.342-.702.08-.272.12-.576.12-.912 0-.336-.04-.642-.12-.918-.08-.276-.194-.514-.342-.714-.148-.2-.326-.354-.534-.462-.208-.108-.436-.162-.684-.162-.248 0-.476.054-.684.162-.208.108-.386.262-.534.462-.148.2-.262.438-.342.714-.08.276-.12.582-.12.918zm5.484 0c0-.488.074-.922.222-1.302.148-.38.346-.702.594-.966s.534-.464.858-.6c.324-.136.666-.204 1.026-.204s.702.068 1.026.204c.324.136.61.336.858.6.248.264.446.586.594.966.148.38.222.814.222 1.302 0 .48-.074.91-.222 1.29-.148.38-.346.7-.594.96s-.534.458-.858.594c-.324.136-.666.204-1.026.204s-.702-.068-1.026-.204c-.324-.136-.61-.334-.858-.594-.248-.26-.446-.58-.594-.96-.148-.38-.222-.81-.222-1.29zm1.02 0c0 .336.04.64.12.912.08.272.194.506.342.702.148.196.326.348.534.456.208.108.436.162.684.162.248 0 .476-.054.684-.162.208-.108.386-.26.534-.456.148-.196.262-.43.342-.702.08-.272.12-.576.12-.912 0-.336-.04-.642-.12-.918-.08-.276-.194-.514-.342-.714-.148-.2-.326-.354-.534-.462-.208-.108-.436-.162-.684-.162-.248 0-.476.054-.684.162-.208.108-.386.262-.534.462-.148.2-.262.438-.342.714-.08.276-.12.582-.12.918zm5.712 2.304c0-.232.07-.418.21-.558.14-.14.31-.21.51-.21.192 0 .358.07.498.21.14.14.21.326.21.558 0 .216-.07.394-.21.534-.14.14-.306.21-.498.21-.2 0-.37-.07-.51-.21-.14-.14-.21-.318-.21-.534zm3.192-7.944h.984v2.328L144 76.84c.264-.232.552-.426.864-.582.312-.156.632-.234.96-.234.376 0 .708.07.996.21.288.14.53.34.726.6.196.26.344.572.444.936.1.364.15.77.15 1.218 0 .496-.068.94-.204 1.332-.136.392-.32.724-.552.996-.232.272-.5.478-.804.618-.304.14-.624.21-.96.21-.272 0-.554-.062-.846-.186-.292-.124-.566-.302-.822-.534h-.036l-.084.576h-.792v-8.544zm.984 7.248c.256.224.51.382.762.474.252.092.474.138.666.138.24 0 .462-.054.666-.162.204-.108.38-.26.528-.456.148-.196.264-.438.348-.726.084-.288.126-.612.126-.972 0-.32-.028-.612-.084-.876-.056-.264-.146-.49-.27-.678-.124-.188-.284-.334-.48-.438-.196-.104-.43-.156-.702-.156-.472 0-.992.264-1.56.792v3.06zm5.388-.216c0-.64.286-1.13.858-1.47.572-.34 1.482-.578 2.73-.714 0-.184-.018-.364-.054-.54-.036-.176-.1-.332-.192-.468s-.214-.246-.366-.33c-.152-.084-.348-.126-.588-.126-.344 0-.662.064-.954.192-.292.128-.554.272-.786.432l-.396-.684c.272-.176.604-.346.996-.51.392-.164.824-.246 1.296-.246.712 0 1.228.218 1.548.654.32.436.48 1.018.48 1.746V82h-.816l-.084-.696h-.024c-.28.232-.582.43-.906.594-.324.164-.666.246-1.026.246-.496 0-.906-.144-1.23-.432-.324-.288-.486-.696-.486-1.224zm.972-.072c0 .336.098.576.294.72.196.144.438.216.726.216.28 0 .546-.066.798-.198s.518-.326.798-.582v-1.62c-.488.064-.9.14-1.236.228-.336.088-.606.192-.81.312-.204.12-.35.258-.438.414-.088.156-.132.326-.132.51zm5.46-4.248h.816l.084 1.056h.036c.2-.368.442-.66.726-.876.284-.216.594-.324.93-.324.232 0 .44.04.624.12l-.192.864c-.096-.032-.184-.056-.264-.072-.08-.016-.18-.024-.3-.024-.248 0-.506.1-.774.3-.268.2-.502.548-.702 1.044V82h-.984v-5.832zm6.504-2.688h.72l-3.204 10.44h-.72l3.204-10.44zm2.28 9.504c0 .312.15.56.45.744.3.184.714.276 1.242.276.28 0 .534-.034.762-.102.228-.068.422-.156.582-.264.16-.108.284-.234.372-.378.088-.144.132-.292.132-.444 0-.272-.1-.46-.3-.564-.2-.104-.492-.156-.876-.156h-1.008c-.112 0-.234-.006-.366-.018-.132-.012-.262-.038-.39-.078-.208.152-.36.312-.456.48-.096.168-.144.336-.144.504zm-.864.132c0-.248.076-.484.228-.708.152-.224.36-.428.624-.612v-.048c-.144-.088-.266-.21-.366-.366-.1-.156-.15-.35-.15-.582 0-.248.068-.464.204-.648.136-.184.28-.328.432-.432v-.048c-.192-.16-.366-.374-.522-.642-.156-.268-.234-.578-.234-.93 0-.32.058-.608.174-.864.116-.256.274-.474.474-.654.2-.18.434-.318.702-.414.268-.096.55-.144.846-.144.16 0 .31.014.45.042.14.028.266.062.378.102h2.028v.756h-1.2c.136.136.25.308.342.516.092.208.138.436.138.684 0 .312-.056.594-.168.846-.112.252-.264.464-.456.636s-.418.306-.678.402c-.26.096-.538.144-.834.144-.144 0-.292-.018-.444-.054-.152-.036-.296-.086-.432-.15-.104.088-.192.186-.264.294-.072.108-.108.242-.108.402 0 .184.072.336.216.456.144.12.416.18.816.18h1.128c.68 0 1.19.11 1.53.33.34.22.51.574.51 1.062 0 .272-.068.53-.204.774-.136.244-.332.458-.588.642-.256.184-.566.33-.93.438-.364.108-.774.162-1.23.162-.36 0-.688-.034-.984-.102-.296-.068-.55-.17-.762-.306-.212-.136-.376-.3-.492-.492-.116-.192-.174-.416-.174-.672zm2.412-3.624c.168 0 .326-.032.474-.096.148-.064.28-.156.396-.276.116-.12.206-.266.27-.438.064-.172.096-.366.096-.582 0-.432-.12-.766-.36-1.002s-.532-.354-.876-.354-.636.118-.876.354-.36.57-.36 1.002c0 .216.032.41.096.582s.154.318.27.438c.116.12.248.212.396.276.148.064.306.096.474.096zm4.584-4.524c-.192 0-.354-.06-.486-.18s-.198-.272-.198-.456c0-.192.066-.346.198-.462.132-.116.294-.174.486-.174s.354.058.486.174c.132.116.198.27.198.462 0 .184-.066.336-.198.456s-.294.18-.486.18zm-.504 1.2h.984V82h-.984v-5.832zm3.12.804h-.864v-.744l.912-.06.12-1.632h.828v1.632h1.572v.804h-1.572v3.24c0 .36.066.638.198.834.132.196.366.294.702.294.104 0 .216-.016.336-.048.12-.032.228-.068.324-.108l.192.744c-.16.056-.334.106-.522.15s-.374.066-.558.066c-.312 0-.574-.048-.786-.144-.212-.096-.384-.228-.516-.396s-.226-.372-.282-.612c-.056-.24-.084-.504-.084-.792v-3.228zm3.888-3.516h.984v2.328l-.036 1.2c.28-.264.572-.49.876-.678.304-.188.66-.282 1.068-.282.616 0 1.066.192 1.35.576.284.384.426.952.426 1.704V82h-.984v-3.564c0-.552-.088-.95-.264-1.194-.176-.244-.456-.366-.84-.366-.304 0-.572.076-.804.228-.232.152-.496.376-.792.672V82h-.984v-8.544zm6.444 2.712h.996v3.564c0 .552.086.95.258 1.194.172.244.45.366.834.366.304 0 .572-.078.804-.234.232-.156.488-.406.768-.75v-4.14h.984V82h-.816l-.084-.912h-.036c-.272.32-.558.576-.858.768-.3.192-.654.288-1.062.288-.624 0-1.078-.192-1.362-.576-.284-.384-.426-.952-.426-1.704v-3.696zm6.612-2.712h.984v2.328l-.024 1.056c.264-.232.552-.426.864-.582.312-.156.632-.234.96-.234.376 0 .708.07.996.21.288.14.53.34.726.6.196.26.344.572.444.936.1.364.15.77.15 1.218 0 .496-.068.94-.204 1.332-.136.392-.32.724-.552.996-.232.272-.5.478-.804.618-.304.14-.624.21-.96.21-.272 0-.554-.062-.846-.186-.292-.124-.566-.302-.822-.534h-.036l-.084.576h-.792v-8.544zm.984 7.248c.256.224.51.382.762.474.252.092.474.138.666.138.24 0 .462-.054.666-.162.204-.108.38-.26.528-.456.148-.196.264-.438.348-.726.084-.288.126-.612.126-.972 0-.32-.028-.612-.084-.876-.056-.264-.146-.49-.27-.678-.124-.188-.284-.334-.48-.438-.196-.104-.43-.156-.702-.156-.472 0-.992.264-1.56.792v3.06zm5.184-2.088h2.76v.756h-2.76v-.756zm4.224-5.16h.984v7.44c0 .16.028.272.084.336.056.064.12.096.192.096h.09c.028 0 .07-.008.126-.024l.132.744c-.064.032-.14.056-.228.072-.088.016-.2.024-.336.024-.376 0-.644-.112-.804-.336-.16-.224-.24-.552-.24-.984v-7.368zm2.628 5.64c0-.488.074-.922.222-1.302.148-.38.346-.702.594-.966s.534-.464.858-.6c.324-.136.666-.204 1.026-.204s.702.068 1.026.204c.324.136.61.336.858.6.248.264.446.586.594.966.148.38.222.814.222 1.302 0 .48-.074.91-.222 1.29-.148.38-.346.7-.594.96s-.534.458-.858.594c-.324.136-.666.204-1.026.204s-.702-.068-1.026-.204c-.324-.136-.61-.334-.858-.594-.248-.26-.446-.58-.594-.96-.148-.38-.222-.81-.222-1.29zm1.02 0c0 .336.04.64.12.912.08.272.194.506.342.702.148.196.326.348.534.456.208.108.436.162.684.162.248 0 .476-.054.684-.162.208-.108.386-.26.534-.456.148-.196.262-.43.342-.702.08-.272.12-.576.12-.912 0-.336-.04-.642-.12-.918-.08-.276-.194-.514-.342-.714-.148-.2-.326-.354-.534-.462-.208-.108-.436-.162-.684-.162-.248 0-.476.054-.684.162-.208.108-.386.262-.534.462-.148.2-.262.438-.342.714-.08.276-.12.582-.12.918zm6.336 3.888c0 .312.15.56.45.744.3.184.714.276 1.242.276.28 0 .534-.034.762-.102.228-.068.422-.156.582-.264.16-.108.284-.234.372-.378.088-.144.132-.292.132-.444 0-.272-.1-.46-.3-.564-.2-.104-.492-.156-.876-.156h-1.008c-.112 0-.234-.006-.366-.018-.132-.012-.262-.038-.39-.078-.208.152-.36.312-.456.48-.096.168-.144.336-.144.504zm-.864.132c0-.248.076-.484.228-.708.152-.224.36-.428.624-.612v-.048c-.144-.088-.266-.21-.366-.366-.1-.156-.15-.35-.15-.582 0-.248.068-.464.204-.648.136-.184.28-.328.432-.432v-.048c-.192-.16-.366-.374-.522-.642-.156-.268-.234-.578-.234-.93 0-.32.058-.608.174-.864.116-.256.274-.474.474-.654.2-.18.434-.318.702-.414.268-.096.55-.144.846-.144.16 0 .31.014.45.042.14.028.266.062.378.102h2.028v.756h-1.2c.136.136.25.308.342.516.092.208.138.436.138.684 0 .312-.056.594-.168.846-.112.252-.264.464-.456.636s-.418.306-.678.402c-.26.096-.538.144-.834.144-.144 0-.292-.018-.444-.054-.152-.036-.296-.086-.432-.15-.104.088-.192.186-.264.294-.072.108-.108.242-.108.402 0 .184.072.336.216.456.144.12.416.18.816.18h1.128c.68 0 1.19.11 1.53.33.34.22.51.574.51 1.062 0 .272-.068.53-.204.774-.136.244-.332.458-.588.642-.256.184-.566.33-.93.438-.364.108-.774.162-1.23.162-.36 0-.688-.034-.984-.102-.296-.068-.55-.17-.762-.306-.212-.136-.376-.3-.492-.492-.116-.192-.174-.416-.174-.672zm2.412-3.624c.168 0 .326-.032.474-.096.148-.064.28-.156.396-.276.116-.12.206-.266.27-.438.064-.172.096-.366.096-.582 0-.432-.12-.766-.36-1.002s-.532-.354-.876-.354-.636.118-.876.354-.36.57-.36 1.002c0 .216.032.41.096.582s.154.318.27.438c.116.12.248.212.396.276.148.064.306.096.474.096zm4.584-4.524c-.192 0-.354-.06-.486-.18s-.198-.272-.198-.456c0-.192.066-.346.198-.462.132-.116.294-.174.486-.174s.354.058.486.174c.132.116.198.27.198.462 0 .184-.066.336-.198.456s-.294.18-.486.18zm-.504 1.2h.984V82h-.984v-5.832zm2.952 0h.816l.084.84h.036c.28-.28.574-.514.882-.702.308-.188.666-.282 1.074-.282.616 0 1.066.192 1.35.576.284.384.426.952.426 1.704V82h-.984v-3.564c0-.552-.088-.95-.264-1.194-.176-.244-.456-.366-.84-.366-.304 0-.572.076-.804.228-.232.152-.496.376-.792.672V82h-.984v-5.832z" id="Browser-redirect-to" fill="#BC00B9"/></g><g id="static"><path id="Rectangle" fill="#555" d="M41 236h163v61H41z"/><path d="M79.132 270.656v2.624H77.82v-11.056h1.088l.112.896h.048c.352-.3.74-.555 1.16-.768.42-.213.86-.32 1.32-.32.5 0 .944.093 1.328.28.384.187.704.453.96.8.256.347.45.763.584 1.248.133.485.2 1.032.2 1.64 0 .66-.09 1.25-.272 1.768-.18.517-.427.957-.736 1.32-.31.363-.667.637-1.072.824-.405.187-.832.28-1.28.28-.363 0-.723-.08-1.08-.24-.357-.16-.717-.38-1.08-.656l.032 1.36zm0-2.384c.352.3.693.51 1.024.632.33.123.624.184.88.184.32 0 .616-.072.888-.216.272-.144.507-.347.704-.608.197-.26.352-.584.464-.968.112-.384.168-.816.168-1.296 0-.427-.037-.816-.112-1.168-.075-.352-.195-.653-.36-.904-.165-.25-.38-.445-.64-.584-.26-.14-.573-.208-.936-.208-.33 0-.664.09-1 .272-.336.18-.696.443-1.08.784v4.08zm7.008-2.144c0-.63.093-1.197.28-1.704.187-.507.435-.936.744-1.288.31-.352.667-.624 1.072-.816.405-.192.832-.288 1.28-.288.448 0 .837.08 1.168.24.33.16.667.38 1.008.656l-.064-1.328v-2.992h1.328V270h-1.088l-.112-.912h-.048c-.31.3-.664.557-1.064.776-.4.22-.83.328-1.288.328-.98 0-1.763-.352-2.344-1.056-.58-.704-.872-1.707-.872-3.008zm1.36-.016c0 .94.187 1.67.56 2.192.373.523.9.784 1.584.784.363 0 .704-.088 1.024-.264.32-.176.64-.445.96-.808v-4.064c-.33-.3-.648-.51-.952-.632-.304-.123-.616-.184-.936-.184-.31 0-.6.072-.872.216-.272.144-.51.347-.712.608-.203.26-.363.573-.48.936-.117.363-.176.768-.176 1.216zm11.584-6.432c-.288-.128-.58-.192-.88-.192-.725 0-1.088.5-1.088 1.504v1.232h1.648v1.072h-1.648V270h-1.312v-6.704h-1.056v-.992l1.056-.08v-1.232c0-.8.184-1.43.552-1.888.368-.46.94-.688 1.72-.688.245 0 .477.024.696.072.22.048.42.11.6.184l-.288 1.008zm.512 5.808h3.68v1.008h-3.68v-1.008zm5.056.64c0-.65.1-1.23.304-1.736.203-.507.475-.936.816-1.288.34-.352.74-.62 1.192-.8.453-.18.93-.272 1.432-.272.512 0 .952.093 1.32.28.368.187.685.403.952.648l-.656.848c-.235-.203-.477-.368-.728-.496-.25-.128-.53-.192-.84-.192-.352 0-.677.072-.976.216-.3.144-.555.35-.768.616-.213.267-.38.584-.504.952-.123.368-.184.776-.184 1.224 0 .448.06.853.176 1.216.117.363.28.675.488.936.208.26.46.464.76.608.3.144.624.216.976.216.373 0 .712-.077 1.016-.232.304-.155.573-.34.808-.552l.592.864c-.352.31-.744.555-1.176.736-.432.18-.883.272-1.352.272-.512 0-.992-.09-1.44-.272-.448-.18-.835-.445-1.16-.792-.325-.347-.58-.773-.768-1.28-.187-.507-.28-1.08-.28-1.72zm7.296 0c0-.65.1-1.23.296-1.736.197-.507.46-.936.792-1.288.33-.352.712-.62 1.144-.8.432-.18.888-.272 1.368-.272.48 0 .936.09 1.368.272.432.18.813.448 1.144.8.33.352.595.78.792 1.288.197.507.296 1.085.296 1.736 0 .64-.1 1.213-.296 1.72-.197.507-.46.933-.792 1.28-.33.347-.712.61-1.144.792-.432.18-.888.272-1.368.272-.48 0-.936-.09-1.368-.272-.432-.18-.813-.445-1.144-.792-.33-.347-.595-.773-.792-1.28-.197-.507-.296-1.08-.296-1.72zm1.36 0c0 .448.053.853.16 1.216.107.363.26.675.456.936.197.26.435.464.712.608.277.144.58.216.912.216.33 0 .635-.072.912-.216.277-.144.515-.347.712-.608.197-.26.35-.573.456-.936.107-.363.16-.768.16-1.216 0-.448-.053-.856-.16-1.224-.107-.368-.26-.685-.456-.952-.197-.267-.435-.472-.712-.616-.277-.144-.58-.216-.912-.216-.33 0-.635.072-.912.216-.277.144-.515.35-.712.616-.197.267-.35.584-.456.952-.107.368-.16.776-.16 1.224zm7.888-3.904h1.088l.112 1.12h.048c.373-.373.765-.685 1.176-.936.41-.25.888-.376 1.432-.376.82 0 1.42.256 1.8.768.38.512.568 1.27.568 2.272V270h-1.312v-4.752c0-.736-.117-1.267-.352-1.592-.235-.325-.608-.488-1.12-.488-.405 0-.763.1-1.072.304-.31.203-.66.5-1.056.896V270h-1.312v-7.776zm7.632 0h1.36l1.472 4.416c.117.384.237.768.36 1.152.123.384.243.763.36 1.136h.064c.117-.373.235-.752.352-1.136l.352-1.152 1.472-4.416h1.296L133.164 270h-1.536l-2.8-7.776zm8.016 3.904c0-.64.1-1.213.296-1.72.197-.507.46-.936.784-1.288.325-.352.696-.62 1.112-.808.416-.187.848-.28 1.296-.28.49 0 .93.085 1.32.256.39.17.715.416.976.736.26.32.46.704.6 1.152.14.448.208.95.208 1.504 0 .288-.016.528-.048.72h-5.248c.053.843.312 1.51.776 2s1.07.736 1.816.736c.373 0 .717-.056 1.032-.168.315-.112.616-.26.904-.44l.464.864c-.34.213-.72.4-1.136.56-.416.16-.89.24-1.424.24-.523 0-1.01-.093-1.464-.28-.453-.187-.848-.453-1.184-.8-.336-.347-.6-.77-.792-1.272-.192-.5-.288-1.072-.288-1.712zm5.44-.592c0-.8-.168-1.41-.504-1.832-.336-.42-.808-.632-1.416-.632-.277 0-.54.056-.792.168-.25.112-.477.272-.68.48-.203.208-.37.464-.504.768-.133.304-.22.653-.264 1.048h4.16zm3.072-3.312h1.088l.112 1.408h.048c.267-.49.59-.88.968-1.168.38-.288.792-.432 1.24-.432.31 0 .587.053.832.16l-.256 1.152c-.128-.043-.245-.075-.352-.096-.107-.02-.24-.032-.4-.032-.33 0-.675.133-1.032.4s-.67.73-.936 1.392V270h-1.312v-7.776zm5.776 1.072h-1.152v-.992l1.216-.08.16-2.176h1.104v2.176h2.096v1.072h-2.096v4.32c0 .48.088.85.264 1.112.176.26.488.392.936.392.14 0 .288-.02.448-.064.16-.043.304-.09.432-.144l.256.992c-.213.075-.445.14-.696.2-.25.06-.5.088-.744.088-.416 0-.765-.064-1.048-.192-.283-.128-.512-.304-.688-.528-.176-.224-.3-.496-.376-.816-.075-.32-.112-.672-.112-1.056v-4.304zm4.608 2.832c0-.64.1-1.213.296-1.72.197-.507.46-.936.784-1.288.325-.352.696-.62 1.112-.808.416-.187.848-.28 1.296-.28.49 0 .93.085 1.32.256.39.17.715.416.976.736.26.32.46.704.6 1.152.14.448.208.95.208 1.504 0 .288-.016.528-.048.72h-5.248c.053.843.312 1.51.776 2s1.07.736 1.816.736c.373 0 .717-.056 1.032-.168.315-.112.616-.26.904-.44l.464.864c-.34.213-.72.4-1.136.56-.416.16-.89.24-1.424.24-.523 0-1.01-.093-1.464-.28-.453-.187-.848-.453-1.184-.8-.336-.347-.6-.77-.792-1.272-.192-.5-.288-1.072-.288-1.712zm5.44-.592c0-.8-.168-1.41-.504-1.832-.336-.42-.808-.632-1.416-.632-.277 0-.54.056-.792.168-.25.112-.477.272-.68.48-.203.208-.37.464-.504.768-.133.304-.22.653-.264 1.048h4.16zm3.072-3.312h1.088l.112 1.408h.048c.267-.49.59-.88.968-1.168.38-.288.792-.432 1.24-.432.31 0 .587.053.832.16l-.256 1.152c-.128-.043-.245-.075-.352-.096-.107-.02-.24-.032-.4-.032-.33 0-.675.133-1.032.4s-.67.73-.936 1.392V270h-1.312v-7.776z" id="pdf-converter" fill="#FFF"/><path id="Rectangle" fill="#555" d="M294 236h163v61H294z"/><path d="M337.86 267.984c0-.853.38-1.507 1.144-1.96.763-.453 1.976-.77 3.64-.952 0-.245-.024-.485-.072-.72-.048-.235-.133-.443-.256-.624-.123-.18-.285-.328-.488-.44-.203-.112-.464-.168-.784-.168-.46 0-.883.085-1.272.256-.39.17-.74.363-1.048.576l-.528-.912c.363-.235.805-.46 1.328-.68.523-.22 1.1-.328 1.728-.328.95 0 1.637.29 2.064.872.427.58.64 1.357.64 2.328V270h-1.088l-.112-.928h-.032c-.373.31-.776.573-1.208.792-.432.22-.888.328-1.368.328-.66 0-1.208-.192-1.64-.576-.432-.384-.648-.928-.648-1.632zm1.296-.096c0 .448.13.768.392.96.26.192.584.288.968.288.373 0 .728-.088 1.064-.264.336-.176.69-.435 1.064-.776v-2.16c-.65.085-1.2.187-1.648.304-.448.117-.808.256-1.08.416-.272.16-.467.344-.584.552-.117.208-.176.435-.176.68zm7.168-5.664h1.328v4.752c0 .736.115 1.267.344 1.592.23.325.6.488 1.112.488.405 0 .763-.104 1.072-.312.31-.208.65-.54 1.024-1v-5.52h1.312V270h-1.088l-.112-1.216h-.048c-.363.427-.744.768-1.144 1.024-.4.256-.872.384-1.416.384-.832 0-1.437-.256-1.816-.768-.38-.512-.568-1.27-.568-2.272v-4.928zm9.04 1.072h-1.152v-.992l1.216-.08.16-2.176h1.104v2.176h2.096v1.072h-2.096v4.32c0 .48.088.85.264 1.112.176.26.488.392.936.392.14 0 .288-.02.448-.064.16-.043.304-.09.432-.144l.256.992c-.213.075-.445.14-.696.2-.25.06-.5.088-.744.088-.416 0-.765-.064-1.048-.192-.283-.128-.512-.304-.688-.528-.176-.224-.3-.496-.376-.816-.075-.32-.112-.672-.112-1.056v-4.304zm5.184-4.688h1.312v3.104l-.048 1.6c.373-.352.763-.653 1.168-.904.405-.25.88-.376 1.424-.376.82 0 1.42.256 1.8.768.38.512.568 1.27.568 2.272V270h-1.312v-4.752c0-.736-.117-1.267-.352-1.592-.235-.325-.608-.488-1.12-.488-.405 0-.763.1-1.072.304-.31.203-.66.5-1.056.896V270h-1.312v-11.392zm8.048 6.88h3.68v1.008h-3.68v-1.008zm5.424 2.752c.34.277.69.5 1.048.672.357.17.77.256 1.24.256.512 0 .896-.117 1.152-.352.256-.235.384-.523.384-.864 0-.203-.053-.38-.16-.528-.107-.15-.243-.28-.408-.392-.165-.112-.355-.21-.568-.296l-.64-.256c-.277-.096-.555-.205-.832-.328-.277-.123-.525-.272-.744-.448-.22-.176-.397-.38-.536-.616-.14-.235-.208-.517-.208-.848 0-.31.06-.6.184-.872.123-.272.3-.507.528-.704.23-.197.51-.352.84-.464.33-.112.704-.168 1.12-.168.49 0 .94.085 1.352.256.41.17.765.38 1.064.624l-.624.832c-.267-.203-.544-.368-.832-.496-.288-.128-.603-.192-.944-.192-.49 0-.85.112-1.08.336-.23.224-.344.485-.344.784 0 .18.048.34.144.472.096.133.224.25.384.352.16.1.344.192.552.272l.648.248c.277.107.557.22.84.336.283.117.536.264.76.44.224.176.408.392.552.648.144.256.216.565.216.928 0 .32-.06.62-.184.896-.123.277-.304.523-.544.736-.24.213-.54.38-.896.504-.357.123-.765.184-1.224.184-.555 0-1.083-.1-1.584-.304-.5-.203-.94-.46-1.312-.768l.656-.88zm6.336-2.112c0-.64.1-1.213.296-1.72.197-.507.46-.936.784-1.288.325-.352.696-.62 1.112-.808.416-.187.848-.28 1.296-.28.49 0 .93.085 1.32.256.39.17.715.416.976.736.26.32.46.704.6 1.152.14.448.208.95.208 1.504 0 .288-.016.528-.048.72h-5.248c.053.843.312 1.51.776 2s1.07.736 1.816.736c.373 0 .717-.056 1.032-.168.315-.112.616-.26.904-.44l.464.864c-.34.213-.72.4-1.136.56-.416.16-.89.24-1.424.24-.523 0-1.01-.093-1.464-.28-.453-.187-.848-.453-1.184-.8-.336-.347-.6-.77-.792-1.272-.192-.5-.288-1.072-.288-1.712zm5.44-.592c0-.8-.168-1.41-.504-1.832-.336-.42-.808-.632-1.416-.632-.277 0-.54.056-.792.168-.25.112-.477.272-.68.48-.203.208-.37.464-.504.768-.133.304-.22.653-.264 1.048h4.16zm3.072-3.312h1.088l.112 1.408h.048c.267-.49.59-.88.968-1.168.38-.288.792-.432 1.24-.432.31 0 .587.053.832.16l-.256 1.152c-.128-.043-.245-.075-.352-.096-.107-.02-.24-.032-.4-.032-.33 0-.675.133-1.032.4s-.67.73-.936 1.392V270h-1.312v-7.776zm4.432 0h1.36l1.472 4.416c.117.384.237.768.36 1.152.123.384.243.763.36 1.136h.064c.117-.373.235-.752.352-1.136l.352-1.152 1.472-4.416h1.296L397.636 270H396.1l-2.8-7.776zm8.016 3.904c0-.64.1-1.213.296-1.72.197-.507.46-.936.784-1.288.325-.352.696-.62 1.112-.808.416-.187.848-.28 1.296-.28.49 0 .93.085 1.32.256.39.17.715.416.976.736.26.32.46.704.6 1.152.14.448.208.95.208 1.504 0 .288-.016.528-.048.72h-5.248c.053.843.312 1.51.776 2s1.07.736 1.816.736c.373 0 .717-.056 1.032-.168.315-.112.616-.26.904-.44l.464.864c-.34.213-.72.4-1.136.56-.416.16-.89.24-1.424.24-.523 0-1.01-.093-1.464-.28-.453-.187-.848-.453-1.184-.8-.336-.347-.6-.77-.792-1.272-.192-.5-.288-1.072-.288-1.712zm5.44-.592c0-.8-.168-1.41-.504-1.832-.336-.42-.808-.632-1.416-.632-.277 0-.54.056-.792.168-.25.112-.477.272-.68.48-.203.208-.37.464-.504.768-.133.304-.22.653-.264 1.048h4.16zm3.072-3.312h1.088l.112 1.408h.048c.267-.49.59-.88.968-1.168.38-.288.792-.432 1.24-.432.31 0 .587.053.832.16l-.256 1.152c-.128-.043-.245-.075-.352-.096-.107-.02-.24-.032-.4-.032-.33 0-.675.133-1.032.4s-.67.73-.936 1.392V270h-1.312v-7.776z" id="auth-server" fill="#FFF"/><path id="Rectangle" fill="#555" d="M294 39h163v61H294z"/><path d="M351.504 62.68c-.288-.128-.58-.192-.88-.192-.725 0-1.088.5-1.088 1.504v1.232h1.648v1.072h-1.648V73h-1.312v-6.704h-1.056v-.992l1.056-.08v-1.232c0-.8.184-1.43.552-1.888.368-.46.94-.688 1.72-.688.245 0 .477.024.696.072.22.048.42.11.6.184l-.288 1.008zm1.168 2.544h1.088l.112 1.408h.048c.267-.49.59-.88.968-1.168.38-.288.792-.432 1.24-.432.31 0 .587.053.832.16l-.256 1.152c-.128-.043-.245-.075-.352-.096-.107-.02-.24-.032-.4-.032-.33 0-.675.133-1.032.4s-.67.73-.936 1.392V73h-1.312v-7.776zm4.976 3.904c0-.65.1-1.23.296-1.736.197-.507.46-.936.792-1.288.33-.352.712-.62 1.144-.8.432-.18.888-.272 1.368-.272.48 0 .936.09 1.368.272.432.18.813.448 1.144.8.33.352.595.78.792 1.288.197.507.296 1.085.296 1.736 0 .64-.1 1.213-.296 1.72-.197.507-.46.933-.792 1.28-.33.347-.712.61-1.144.792-.432.18-.888.272-1.368.272-.48 0-.936-.09-1.368-.272-.432-.18-.813-.445-1.144-.792-.33-.347-.595-.773-.792-1.28-.197-.507-.296-1.08-.296-1.72zm1.36 0c0 .448.053.853.16 1.216.107.363.26.675.456.936.197.26.435.464.712.608.277.144.58.216.912.216.33 0 .635-.072.912-.216.277-.144.515-.347.712-.608.197-.26.35-.573.456-.936.107-.363.16-.768.16-1.216 0-.448-.053-.856-.16-1.224-.107-.368-.26-.685-.456-.952-.197-.267-.435-.472-.712-.616-.277-.144-.58-.216-.912-.216-.33 0-.635.072-.912.216-.277.144-.515.35-.712.616-.197.267-.35.584-.456.952-.107.368-.16.776-.16 1.224zm7.888-3.904h1.088l.112 1.12h.048c.373-.373.765-.685 1.176-.936.41-.25.888-.376 1.432-.376.82 0 1.42.256 1.8.768.38.512.568 1.27.568 2.272V73h-1.312v-4.752c0-.736-.117-1.267-.352-1.592-.235-.325-.608-.488-1.12-.488-.405 0-.763.1-1.072.304-.31.203-.66.5-1.056.896V73h-1.312v-7.776zm8.976 1.072h-1.152v-.992l1.216-.08.16-2.176h1.104v2.176h2.096v1.072H377.2v4.32c0 .48.088.85.264 1.112.176.26.488.392.936.392.14 0 .288-.02.448-.064.16-.043.304-.09.432-.144l.256.992c-.213.075-.445.14-.696.2-.25.06-.5.088-.744.088-.416 0-.765-.064-1.048-.192-.283-.128-.512-.304-.688-.528-.176-.224-.3-.496-.376-.816-.075-.32-.112-.672-.112-1.056v-4.304zm4.608 2.832c0-.64.1-1.213.296-1.72.197-.507.46-.936.784-1.288.325-.352.696-.62 1.112-.808.416-.187.848-.28 1.296-.28.49 0 .93.085 1.32.256.39.17.715.416.976.736.26.32.46.704.6 1.152.14.448.208.95.208 1.504 0 .288-.016.528-.048.72h-5.248c.053.843.312 1.51.776 2s1.07.736 1.816.736c.373 0 .717-.056 1.032-.168.315-.112.616-.26.904-.44l.464.864c-.34.213-.72.4-1.136.56-.416.16-.89.24-1.424.24-.523 0-1.01-.093-1.464-.28-.453-.187-.848-.453-1.184-.8-.336-.347-.6-.77-.792-1.272-.192-.5-.288-1.072-.288-1.712zm5.44-.592c0-.8-.168-1.41-.504-1.832-.336-.42-.808-.632-1.416-.632-.277 0-.54.056-.792.168-.25.112-.477.272-.68.48-.203.208-.37.464-.504.768-.133.304-.22.653-.264 1.048h4.16zm3.072-3.312h1.088l.112 1.12h.048c.373-.373.765-.685 1.176-.936.41-.25.888-.376 1.432-.376.82 0 1.42.256 1.8.768.38.512.568 1.27.568 2.272V73h-1.312v-4.752c0-.736-.117-1.267-.352-1.592-.235-.325-.608-.488-1.12-.488-.405 0-.763.1-1.072.304-.31.203-.66.5-1.056.896V73h-1.312v-7.776zm8.192 3.904c0-.63.093-1.197.28-1.704.187-.507.435-.936.744-1.288.31-.352.667-.624 1.072-.816.405-.192.832-.288 1.28-.288.448 0 .837.08 1.168.24.33.16.667.38 1.008.656l-.064-1.328v-2.992H404V73h-1.088l-.112-.912h-.048c-.31.3-.664.557-1.064.776-.4.22-.83.328-1.288.328-.98 0-1.763-.352-2.344-1.056-.58-.704-.872-1.707-.872-3.008zm1.36-.016c0 .94.187 1.67.56 2.192.373.523.9.784 1.584.784.363 0 .704-.088 1.024-.264.32-.176.64-.445.96-.808v-4.064c-.33-.3-.648-.51-.952-.632-.304-.123-.616-.184-.936-.184-.31 0-.6.072-.872.216-.272.144-.51.347-.712.608-.203.26-.363.573-.48.936-.117.363-.176.768-.176 1.216z" id="frontend" fill="#FFF"/><path id="Rectangle" fill="#555" d="M540 236h163v61H540z"/><path d="M593.884 258.608h1.312v3.104l-.032 1.408c.352-.31.736-.568 1.152-.776.416-.208.843-.312 1.28-.312.5 0 .944.093 1.328.28.384.187.707.453.968.8.26.347.46.763.592 1.248.133.485.2 1.027.2 1.624 0 .66-.09 1.253-.272 1.776-.18.523-.427.965-.736 1.328-.31.363-.667.637-1.072.824-.405.187-.832.28-1.28.28-.363 0-.74-.083-1.128-.248-.39-.165-.755-.403-1.096-.712h-.048l-.112.768h-1.056v-11.392zm1.312 9.664c.34.3.68.51 1.016.632.336.123.632.184.888.184.32 0 .616-.072.888-.216.272-.144.507-.347.704-.608.197-.26.352-.584.464-.968.112-.384.168-.816.168-1.296 0-.427-.037-.816-.112-1.168-.075-.352-.195-.653-.36-.904-.165-.25-.38-.445-.64-.584-.26-.14-.573-.208-.936-.208-.63 0-1.323.352-2.08 1.056v4.08zm7.184-.288c0-.853.38-1.507 1.144-1.96.763-.453 1.976-.77 3.64-.952 0-.245-.024-.485-.072-.72-.048-.235-.133-.443-.256-.624-.123-.18-.285-.328-.488-.44-.203-.112-.464-.168-.784-.168-.46 0-.883.085-1.272.256-.39.17-.74.363-1.048.576l-.528-.912c.363-.235.805-.46 1.328-.68.523-.22 1.1-.328 1.728-.328.95 0 1.637.29 2.064.872.427.58.64 1.357.64 2.328V270h-1.088l-.112-.928h-.032c-.373.31-.776.573-1.208.792-.432.22-.888.328-1.368.328-.66 0-1.208-.192-1.64-.576-.432-.384-.648-.928-.648-1.632zm1.296-.096c0 .448.13.768.392.96.26.192.584.288.968.288.373 0 .728-.088 1.064-.264.336-.176.69-.435 1.064-.776v-2.16c-.65.085-1.2.187-1.648.304-.448.117-.808.256-1.08.416-.272.16-.467.344-.584.552-.117.208-.176.435-.176.68zm6.704-1.76c0-.65.1-1.23.304-1.736.203-.507.475-.936.816-1.288.34-.352.74-.62 1.192-.8.453-.18.93-.272 1.432-.272.512 0 .952.093 1.32.28.368.187.685.403.952.648l-.656.848c-.235-.203-.477-.368-.728-.496-.25-.128-.53-.192-.84-.192-.352 0-.677.072-.976.216-.3.144-.555.35-.768.616-.213.267-.38.584-.504.952-.123.368-.184.776-.184 1.224 0 .448.06.853.176 1.216.117.363.28.675.488.936.208.26.46.464.76.608.3.144.624.216.976.216.373 0 .712-.077 1.016-.232.304-.155.573-.34.808-.552l.592.864c-.352.31-.744.555-1.176.736-.432.18-.883.272-1.352.272-.512 0-.992-.09-1.44-.272-.448-.18-.835-.445-1.16-.792-.325-.347-.58-.773-.768-1.28-.187-.507-.28-1.08-.28-1.72zm7.872-7.52h1.296v7.712h.048l3.312-4.096h1.456l-2.608 3.12 2.96 4.656h-1.44l-2.272-3.744-1.456 1.696V270h-1.296v-11.392zm7.344 7.52c0-.64.1-1.213.296-1.72.197-.507.46-.936.784-1.288.325-.352.696-.62 1.112-.808.416-.187.848-.28 1.296-.28.49 0 .93.085 1.32.256.39.17.715.416.976.736.26.32.46.704.6 1.152.14.448.208.95.208 1.504 0 .288-.016.528-.048.72h-5.248c.053.843.312 1.51.776 2s1.07.736 1.816.736c.373 0 .717-.056 1.032-.168.315-.112.616-.26.904-.44l.464.864c-.34.213-.72.4-1.136.56-.416.16-.89.24-1.424.24-.523 0-1.01-.093-1.464-.28-.453-.187-.848-.453-1.184-.8-.336-.347-.6-.77-.792-1.272-.192-.5-.288-1.072-.288-1.712zm5.44-.592c0-.8-.168-1.41-.504-1.832-.336-.42-.808-.632-1.416-.632-.277 0-.54.056-.792.168-.25.112-.477.272-.68.48-.203.208-.37.464-.504.768-.133.304-.22.653-.264 1.048h4.16zm3.072-3.312h1.088l.112 1.12h.048c.373-.373.765-.685 1.176-.936.41-.25.888-.376 1.432-.376.82 0 1.42.256 1.8.768.38.512.568 1.27.568 2.272V270h-1.312v-4.752c0-.736-.117-1.267-.352-1.592-.235-.325-.608-.488-1.12-.488-.405 0-.763.1-1.072.304-.31.203-.66.5-1.056.896V270h-1.312v-7.776zm8.192 3.904c0-.63.093-1.197.28-1.704.187-.507.435-.936.744-1.288.31-.352.667-.624 1.072-.816.405-.192.832-.288 1.28-.288.448 0 .837.08 1.168.24.33.16.667.38 1.008.656l-.064-1.328v-2.992h1.328V270h-1.088l-.112-.912h-.048c-.31.3-.664.557-1.064.776-.4.22-.83.328-1.288.328-.98 0-1.763-.352-2.344-1.056-.58-.704-.872-1.707-.872-3.008zm1.36-.016c0 .94.187 1.67.56 2.192.373.523.9.784 1.584.784.363 0 .704-.088 1.024-.264.32-.176.64-.445.96-.808v-4.064c-.33-.3-.648-.51-.952-.632-.304-.123-.616-.184-.936-.184-.31 0-.6.072-.872.216-.272.144-.51.347-.712.608-.203.26-.363.573-.48.936-.117.363-.176.768-.176 1.216z" id="backend" fill="#FFF"/><path id="Rectangle" fill="#555" d="M294 433h163v61H294z"/><path d="M340.036 461.752c0-.843.12-1.6.36-2.272.24-.672.576-1.243 1.008-1.712.432-.47.94-.83 1.528-1.08.587-.25 1.232-.376 1.936-.376.725 0 1.33.136 1.816.408.485.272.883.568 1.192.888l-.752.848c-.267-.277-.573-.51-.92-.696-.347-.187-.787-.28-1.32-.28s-1.013.1-1.44.296c-.427.197-.79.48-1.088.848-.3.368-.53.813-.696 1.336-.165.523-.248 1.11-.248 1.76 0 .66.077 1.256.232 1.784.155.528.38.98.672 1.352.293.373.656.66 1.088.864.432.203.93.304 1.496.304.373 0 .728-.056 1.064-.168.336-.112.61-.264.824-.456v-2.736h-2.224v-1.104h3.44v4.416c-.34.352-.792.643-1.352.872-.56.23-1.192.344-1.896.344-.693 0-1.328-.123-1.904-.368-.576-.245-1.072-.6-1.488-1.064-.416-.464-.74-1.035-.976-1.712-.235-.677-.352-1.443-.352-2.296zm11.024-4.128c-.256 0-.472-.08-.648-.24-.176-.16-.264-.363-.264-.608 0-.256.088-.46.264-.616.176-.155.392-.232.648-.232s.472.077.648.232c.176.155.264.36.264.616 0 .245-.088.448-.264.608-.176.16-.392.24-.648.24zm-.672 1.6h1.312V467h-1.312v-7.776zm4.16 1.072h-1.152v-.992l1.216-.08.16-2.176h1.104v2.176h2.096v1.072h-2.096v4.32c0 .48.088.85.264 1.112.176.26.488.392.936.392.14 0 .288-.02.448-.064.16-.043.304-.09.432-.144l.256.992c-.213.075-.445.14-.696.2-.25.06-.5.088-.744.088-.416 0-.765-.064-1.048-.192-.283-.128-.512-.304-.688-.528-.176-.224-.3-.496-.376-.816-.075-.32-.112-.672-.112-1.056v-4.304zm5.312-3.792h1.328v4.4h4.88v-4.4h1.344V467h-1.344v-4.944h-4.88V467h-1.328v-10.496zm10.192 2.72h1.328v4.752c0 .736.115 1.267.344 1.592.23.325.6.488 1.112.488.405 0 .763-.104 1.072-.312.31-.208.65-.54 1.024-1v-5.52h1.312V467h-1.088l-.112-1.216h-.048c-.363.427-.744.768-1.144 1.024-.4.256-.872.384-1.416.384-.832 0-1.437-.256-1.816-.768-.38-.512-.568-1.27-.568-2.272v-4.928zm8.816-3.616h1.312v3.104l-.032 1.408c.352-.31.736-.568 1.152-.776.416-.208.843-.312 1.28-.312.5 0 .944.093 1.328.28.384.187.707.453.968.8.26.347.46.763.592 1.248.133.485.2 1.027.2 1.624 0 .66-.09 1.253-.272 1.776-.18.523-.427.965-.736 1.328-.31.363-.667.637-1.072.824-.405.187-.832.28-1.28.28-.363 0-.74-.083-1.128-.248-.39-.165-.755-.403-1.096-.712h-.048l-.112.768h-1.056v-11.392zm1.312 9.664c.34.3.68.51 1.016.632.336.123.632.184.888.184.32 0 .616-.072.888-.216.272-.144.507-.347.704-.608.197-.26.352-.584.464-.968.112-.384.168-.816.168-1.296 0-.427-.037-.816-.112-1.168-.075-.352-.195-.653-.36-.904-.165-.25-.38-.445-.64-.584-.26-.14-.573-.208-.936-.208-.63 0-1.323.352-2.08 1.056v4.08zm15.392-2.544l-.496-1.6c-.192-.587-.373-1.17-.544-1.752-.17-.58-.34-1.176-.512-1.784h-.064c-.16.608-.325 1.203-.496 1.784-.17.58-.352 1.165-.544 1.752l-.496 1.6h3.152zm.336 1.072h-3.824l-1.008 3.2h-1.36l3.552-10.496h1.504L398.324 467H396.9l-.992-3.2zm3.904-7.296h3.216c.576 0 1.104.053 1.584.16.48.107.888.28 1.224.52.336.24.597.557.784.952.187.395.28.88.28 1.456 0 .555-.093 1.035-.28 1.44-.187.405-.45.74-.792 1.008-.34.267-.75.467-1.224.6-.475.133-1 .2-1.576.2h-1.888V467h-1.328v-10.496zm3.056 5.248c.917 0 1.597-.173 2.04-.52.443-.347.664-.893.664-1.64 0-.757-.224-1.283-.672-1.576-.448-.293-1.125-.44-2.032-.44h-1.728v4.176h1.728zm6.16-5.248h1.328V467h-1.328v-10.496z" id="GitHub-API" fill="#FFF"/></g>
        <rect id="hg-loading" fill="#BC00B9" x="0" y="512" width="1%" height="10"></rect>
    </g>
    <script type="text/javascript"
            xlink:href="https://unpkg.com/hirngespinst@0.0.9/dist/showWithDelay.js"
            href="https://unpkg.com/hirngespinst@0.0.9/dist/showWithDelay.js"
    />
    <script type="text/javascript">
        Hirngespinst.showWithDelay({
            frameAutoHide: true
        });
    </script>
</svg>
