<svg width="2010" height="780" viewBox="0 0 2010 780" xmlns="http://www.w3.org/2000/svg"><title/><defs><linearGradient x1="50%" y1="0%" x2="50%" y2="100%" id="a"><stop stop-color="#FBFBFB" offset="0%"/><stop stop-color="#FDFDFD" offset="100%"/></linearGradient><linearGradient x1="50%" y1="0%" x2="50%" y2="100%" id="b"><stop stop-color="#FFEF5A" offset="0%"/><stop stop-color="#FDCC0D" offset="100%"/></linearGradient><linearGradient x1="50%" y1="0%" x2="50%" y2="98.693%" id="c"><stop stop-color="#D4D4D4" offset="0%"/><stop stop-color="#7C7C7C" offset="100%"/></linearGradient></defs><g fill="none" fill-rule="evenodd"><path fill="url(#a)" d="M0 0h2010v780H0z"/><path d="M532 250h4.8v44.1h55.5V250h4.8v99h-4.8v-50.7h-55.5V349H532v-99zm100.1 0h4.8v99h-4.8v-99zm65.3 48c9.2 0 16.25-1.825 21.15-5.475 4.9-3.65 7.35-9.325 7.35-17.025 0-7.8-2.45-13.3-7.35-16.5-4.9-3.2-11.95-4.8-21.15-4.8h-20.7V298h20.7zm29.4 51l-27.9-46.8h-22.2V349h-4.8v-99h27.3c4.9 0 9.3.475 13.2 1.425 3.9.95 7.225 2.45 9.975 4.5s4.875 4.675 6.375 7.875 2.25 7.1 2.25 11.7c0 7.9-2.375 14.075-7.125 18.525-4.75 4.45-11.275 7.075-19.575 7.875l28.2 47.1h-5.7zm32.9-99h5.1l43.8 72.6 11.4 19.5h.6c-.2-4.8-.35-9.475-.45-14.025-.1-4.55-.15-9.175-.15-13.875V250h4.5v99h-5.1l-43.8-72.6-11.4-19.5h-.6c.2 4.7.35 9.2.45 13.5.1 4.3.15 8.8.15 13.5V349h-4.5v-99zm93.2 49.2c0-7.8 1.025-14.85 3.075-21.15 2.05-6.3 4.95-11.65 8.7-16.05 3.75-4.4 8.3-7.8 13.65-10.2 5.35-2.4 11.275-3.6 17.775-3.6 3.3 0 6.3.35 9 1.05 2.7.7 5.125 1.625 7.275 2.775 2.15 1.15 4.05 2.425 5.7 3.825 1.65 1.4 3.125 2.75 4.425 4.05l-3 3.3c-2.6-2.9-5.75-5.375-9.45-7.425-3.7-2.05-8.35-3.075-13.95-3.075-5.9 0-11.2 1.075-15.9 3.225-4.7 2.15-8.7 5.25-12 9.3-3.3 4.05-5.825 8.95-7.575 14.7S858 292.1 858 299.2c0 7.1.85 13.55 2.55 19.35 1.7 5.8 4.125 10.75 7.275 14.85 3.15 4.1 7 7.275 11.55 9.525 4.55 2.25 9.725 3.375 15.525 3.375 4.8 0 9.3-.7 13.5-2.1 4.2-1.4 7.6-3.4 10.2-6v-32.7H894v-4.2h29.4v38.4c-3 3.3-6.925 5.975-11.775 8.025-4.85 2.05-10.525 3.075-17.025 3.075-6.3 0-12.025-1.225-17.175-3.675-5.15-2.45-9.525-5.925-13.125-10.425-3.6-4.5-6.4-9.925-8.4-16.275-2-6.35-3-13.425-3-21.225zM954.5 250h53.1v4.2h-48.3v39.9h40.5v4.2h-40.5v46.5h49.8v4.2h-54.6v-99zm77 82.5c3.6 4.2 7.95 7.55 13.05 10.05 5.1 2.5 10.65 3.75 16.65 3.75 4 0 7.6-.525 10.8-1.575 3.2-1.05 5.925-2.5 8.175-4.35 2.25-1.85 4-4.075 5.25-6.675 1.25-2.6 1.875-5.5 1.875-8.7 0-3.3-.5-6.075-1.5-8.325-1-2.25-2.325-4.2-3.975-5.85-1.65-1.65-3.575-3.075-5.775-4.275-2.2-1.2-4.55-2.35-7.05-3.45l-15.3-6.9c-2.1-.9-4.325-2-6.675-3.3-2.35-1.3-4.525-2.875-6.525-4.725-2-1.85-3.65-4.1-4.95-6.75-1.3-2.65-1.95-5.825-1.95-9.525 0-3.5.7-6.7 2.1-9.6 1.4-2.9 3.35-5.4 5.85-7.5 2.5-2.1 5.45-3.725 8.85-4.875 3.4-1.15 7.1-1.725 11.1-1.725 6 0 11.275 1.175 15.825 3.525 4.55 2.35 8.275 5.075 11.175 8.175l-3 3.3c-2.9-3.2-6.35-5.75-10.35-7.65-4-1.9-8.55-2.85-13.65-2.85-6.9 0-12.475 1.725-16.725 5.175-4.25 3.45-6.375 8.025-6.375 13.725 0 3.1.575 5.725 1.725 7.875 1.15 2.15 2.6 4 4.35 5.55 1.75 1.55 3.625 2.85 5.625 3.9 2 1.05 3.9 1.975 5.7 2.775l15.3 6.9c2.7 1.2 5.325 2.525 7.875 3.975 2.55 1.45 4.8 3.175 6.75 5.175 1.95 2 3.5 4.375 4.65 7.125 1.15 2.75 1.725 6.025 1.725 9.825 0 3.8-.75 7.275-2.25 10.425-1.5 3.15-3.6 5.9-6.3 8.25-2.7 2.35-5.95 4.175-9.75 5.475-3.8 1.3-8 1.95-12.6 1.95-7.4 0-13.8-1.4-19.2-4.2-5.4-2.8-10-6.4-13.8-10.8l3.3-3.3zm86.9-82.5h25.8c11.1 0 19.675 2.025 25.725 6.075 6.05 4.05 9.075 11.025 9.075 20.925 0 9.5-3 16.575-9 21.225-6 4.65-14.6 6.975-25.8 6.975h-21V349h-4.8v-99zm24 51c10.7 0 18.625-1.85 23.775-5.55 5.15-3.7 7.725-9.85 7.725-18.45 0-8.7-2.6-14.675-7.8-17.925-5.2-3.25-13.1-4.875-23.7-4.875h-19.2V301h19.2zm63.8-51h4.8v99h-4.8v-99zm39.8 0h5.1l43.8 72.6 11.4 19.5h.6c-.2-4.8-.35-9.475-.45-14.025-.1-4.55-.15-9.175-.15-13.875V250h4.5v99h-5.1l-43.8-72.6-11.4-19.5h-.6c.2 4.7.35 9.2.45 13.5.1 4.3.15 8.8.15 13.5V349h-4.5v-99zm95.3 82.5c3.6 4.2 7.95 7.55 13.05 10.05 5.1 2.5 10.65 3.75 16.65 3.75 4 0 7.6-.525 10.8-1.575 3.2-1.05 5.925-2.5 8.175-4.35 2.25-1.85 4-4.075 5.25-6.675 1.25-2.6 1.875-5.5 1.875-8.7 0-3.3-.5-6.075-1.5-8.325-1-2.25-2.325-4.2-3.975-5.85-1.65-1.65-3.575-3.075-5.775-4.275-2.2-1.2-4.55-2.35-7.05-3.45l-15.3-6.9c-2.1-.9-4.325-2-6.675-3.3-2.35-1.3-4.525-2.875-6.525-4.725-2-1.85-3.65-4.1-4.95-6.75-1.3-2.65-1.95-5.825-1.95-9.525 0-3.5.7-6.7 2.1-9.6 1.4-2.9 3.35-5.4 5.85-7.5 2.5-2.1 5.45-3.725 8.85-4.875 3.4-1.15 7.1-1.725 11.1-1.725 6 0 11.275 1.175 15.825 3.525 4.55 2.35 8.275 5.075 11.175 8.175l-3 3.3c-2.9-3.2-6.35-5.75-10.35-7.65-4-1.9-8.55-2.85-13.65-2.85-6.9 0-12.475 1.725-16.725 5.175-4.25 3.45-6.375 8.025-6.375 13.725 0 3.1.575 5.725 1.725 7.875 1.15 2.15 2.6 4 4.35 5.55 1.75 1.55 3.625 2.85 5.625 3.9 2 1.05 3.9 1.975 5.7 2.775l15.3 6.9c2.7 1.2 5.325 2.525 7.875 3.975 2.55 1.45 4.8 3.175 6.75 5.175 1.95 2 3.5 4.375 4.65 7.125 1.15 2.75 1.725 6.025 1.725 9.825 0 3.8-.75 7.275-2.25 10.425-1.5 3.15-3.6 5.9-6.3 8.25-2.7 2.35-5.95 4.175-9.75 5.475-3.8 1.3-8 1.95-12.6 1.95-7.4 0-13.8-1.4-19.2-4.2-5.4-2.8-10-6.4-13.8-10.8l3.3-3.3zm105.5-78.3h-32.1V250h69v4.2h-32.1V349h-4.8v-94.8z" fill="#555"/><path d="M43.852 128.702c23.086 0 .577 3.702 23.086-25.42.87-37.9 8.103-9.092 0-20.014C66.938 45.15 124.894.046 43.76.046S21.08 42.603 21.08 83.268c-8.648 13.966-.045-17.382 0 20.013 25.134 25.026 0 25.422 22.772 25.422z" stroke="#555" stroke-width="6" fill="url(#b)" transform="translate(965 457)"/><path d="M987.048 540.396c5.61-1.082 14.97-2.16 24.47-1.82 9.5.338 15.575 1.82 20.835 1.82" stroke="#555" stroke-width="5"/><path d="M23.04 82.886h41.933s-.97 12.15-.97 19.385C52.83 118.28 54.25 118.627 52.47 125.6c-7.446 1.12-9.98 1.098-15.677 0 0-7.3-5.44-14.46-12.635-22.703 0-8.312-1.118-20.01-1.118-20.01z" fill="url(#c)" transform="translate(965 457)"/><path d="M988.963 495.243c0-21.194 18.413-19.658 11.882-6.645-.434.864-2.147-2.12-1.302-2.594l2.603-3.89c1.99-1.118 4.436-1.343 6.722-1.352 2.64-.01 5.782-.386 7.81 1.297 1.332 1.106.78 3.64 0 5.185-.715 1.414-2.81 3.745-3.957 2.65-1.29-1.235-.434-4.762 1.303-5.187 4.67-1.145 10.813-1.882 14.368 1.347 2.39 2.17-1.394 10.988-1.394 12.876" stroke="#555" stroke-width="4"/><path d="M986.75 540.396c5.61-1.082 14.97-2.16 24.47-1.82 9.5.338 15.575 1.82 20.836 1.82M986.75 550.963c5.61-1.082 14.97-2.16 24.47-1.82 9.5.338 15.575 1.82 20.836 1.82M986.75 562.454c5.61-1.082 14.97-2.16 24.47-1.82 9.5.338 15.575 1.82 20.836 1.82M993.618 573.945c3.828-1.082 10.212-2.16 16.693-1.82 6.482.338 10.627 1.82 14.216 1.82" stroke="#555" stroke-width="5"/></g></svg>